<?xml version="1.0" encoding="utf-8"?>
<!-- Generator: Adobe Illustrator 19.0.0, SVG Export Plug-In . SVG Version: 6.00 Build 0)  -->
<svg version="1.1" id="Layer_1" xmlns="http://www.w3.org/2000/svg" xmlns:xlink="http://www.w3.org/1999/xlink" x="0px" y="0px"
	 viewBox="0 0 20 20" style="enable-background:new 0 0 20 20;" xml:space="preserve">
<style type="text/css">
	.st0{clip-path:url(#SVGID_2_);fill:none;stroke:#000000;stroke-linecap:round;stroke-miterlimit:10;}
	.st1{clip-path:url(#SVGID_2_);fill:none;stroke:#000000;stroke-miterlimit:10;}
	.st2{clip-path:url(#SVGID_2_);fill:none;stroke:#000000;stroke-linecap:round;stroke-linejoin:round;stroke-miterlimit:10;}
</style>
<g>
	<defs>
		<rect id="SVGID_1_" y="0" width="20" height="20"/>
	</defs>
	<clipPath id="SVGID_2_">
		<use xlink:href="#SVGID_1_"  style="overflow:visible;"/>
	</clipPath>
	<path class="st0" d="M17.5,17.5v1.7c0,0.1-0.1,0.2-0.2,0.2h-2.5c-0.1,0-0.2-0.1-0.2-0.2v-1.7"/>
	<path class="st0" d="M5.5,17.5v1.7c0,0.1-0.1,0.2-0.2,0.2H2.7c-0.1,0-0.2-0.1-0.2-0.2v-1.7"/>
	<path class="st0" d="M19,17.5H1c-0.3,0-0.5-0.2-0.5-0.5v-2c0-0.3,0.2-0.5,0.5-0.5h18c0.3,0,0.5,0.2,0.5,0.5v2
		C19.5,17.3,19.3,17.5,19,17.5z"/>
	<line class="st1" x1="12" y1="12.5" x2="8" y2="12.5"/>
	<rect x="3.5" y="10.5" class="st2" width="3" height="2"/>
	<rect x="13.5" y="10.5" class="st2" width="3" height="2"/>
	<path class="st2" d="M1.6,8.7l2.3-6.4c0.4-1.1,1.4-1.8,2.6-1.8h6.9c1.2,0,2.2,0.7,2.6,1.8l2.3,6.4c0.1,0.2,0.1,0.5,0.1,0.7v5.1h-17
		V9.4C1.5,9.1,1.5,8.9,1.6,8.7z"/>
	<path class="st0" d="M17.3,5.6c0.3,0.9-0.3,1.9-1.3,1.9L4,7.5c-1,0-1.6-1-1.3-1.9"/>
	<path class="st0" d="M17.3,5.5H19c0.3,0,0.5,0.2,0.5,0.5V7c0,0.3-0.2,0.5-0.5,0.5h-1"/>
	<path class="st0" d="M2.8,5.5H1C0.7,5.5,0.5,5.7,0.5,6V7c0,0.3,0.2,0.5,0.5,0.5h1"/>
	<line class="st1" x1="5.5" y1="7.5" x2="8.5" y2="4.5"/>
	<line class="st1" x1="11.5" y1="7.5" x2="14.5" y2="4.5"/>
</g>
</svg>
