<?xml version="1.0" encoding="utf-8"?>
<!-- Generator: Adobe Illustrator 19.0.0, SVG Export Plug-In . SVG Version: 6.00 Build 0)  -->
<svg version="1.1" id="Layer_1" xmlns="http://www.w3.org/2000/svg" xmlns:xlink="http://www.w3.org/1999/xlink" x="0px" y="0px"
	 viewBox="0 0 14.05 8.89" style="enable-background:new 0 0 14.05 8.89;" xml:space="preserve">
<style type="text/css">
	.st0{fill:#4C7BFC;}
	.st1{fill:none;stroke:#4C7BFC;stroke-width:0.7;stroke-linecap:round;stroke-linejoin:round;stroke-miterlimit:10;}
</style>
<g id="XMLID_14_">
	<g id="XMLID_334_">
		<g id="XMLID_339_">
			<path id="XMLID_33_" class="st0" d="M2.88,8.89c-1.2,0-2.18-0.98-2.18-2.18c0-0.05,0-0.13,0.03-0.21l0.66,0.22
				C1.4,7.53,2.06,8.19,2.88,8.19s1.48-0.66,1.48-1.48L5.03,6.5c0.03,0.08,0.03,0.16,0.03,0.21C5.06,7.91,4.08,8.89,2.88,8.89z"/>
		</g>
	</g>
	<g id="XMLID_333_">
		<path id="XMLID_30_" class="st0" d="M6.58,6.96H0.35C0.16,6.96,0,6.8,0,6.61c0-0.89,0.35-1.72,0.97-2.35
			C1.61,3.64,2.44,3.3,3.32,3.3h3.25c0.19,0,0.35,0.16,0.35,0.35c0,0.17-0.12,0.34-0.29,0.37C6.08,4.11,5.69,4.58,5.69,5.13
			c0,0.55,0.4,1.02,0.95,1.11C6.8,6.27,6.93,6.42,6.93,6.59C6.93,6.78,6.77,6.96,6.58,6.96z M0.72,6.26h4.65
			C5.13,5.95,4.99,5.56,4.99,5.13S5.13,4.31,5.38,4H3.32C2.63,4,1.97,4.27,1.47,4.76C1.06,5.17,0.8,5.69,0.72,6.26z"/>
	</g>
	<g id="XMLID_331_">
		<path class="st1" d="M0.37,3.38"/>
	</g>
	<g id="XMLID_330_">
		<path id="XMLID_27_" class="st0" d="M6.57,3.91H3.1c-0.1,0-0.2-0.04-0.27-0.12L2.05,2.88C1.97,2.78,1.95,2.63,2,2.51
			c0.06-0.12,0.18-0.2,0.32-0.2h4.25c0.19,0,0.35,0.16,0.35,0.35v0.91C6.92,3.76,6.77,3.91,6.57,3.91z M3.26,3.21h2.96V3H3.08
			L3.26,3.21z"/>
	</g>
	<g id="XMLID_329_">
		<path id="XMLID_26_" class="st0" d="M10.11,1.58H8.03c-0.19,0-0.35-0.16-0.35-0.35s0.16-0.35,0.35-0.35h2.07
			c0.19,0,0.35,0.16,0.35,0.35S10.3,1.58,10.11,1.58z"/>
	</g>
	<g id="XMLID_327_">
		<path id="XMLID_25_" class="st0" d="M11.13,5.31c-0.15,0-0.29-0.1-0.34-0.25L9.75,1.51C9.7,1.32,9.81,1.13,9.99,1.08
			c0.19-0.05,0.38,0.05,0.43,0.24l1.04,3.55c0.05,0.19-0.05,0.38-0.24,0.43C11.19,5.31,11.16,5.31,11.13,5.31z"/>
	</g>
	<g id="XMLID_326_">
		<path class="st1" d="M4.44,4.36"/>
	</g>
	<g id="XMLID_335_">
		<path class="st1" d="M9.16,1.29"/>
	</g>
	<g id="XMLID_323_">
		<path id="XMLID_24_" class="st0" d="M6.8,6.97c-0.17,0-0.28-0.02-0.3-0.02C6.31,6.91,6.18,6.73,6.22,6.54
			c0.03-0.19,0.21-0.32,0.4-0.28c0.04,0.01,0.75,0.11,1.36-0.46c0.54-0.51,1.13-1.7,0.83-4.47C8.79,1.14,8.93,0.96,9.13,0.94
			c0.21-0.01,0.37,0.12,0.39,0.31c0.27,2.46-0.09,4.16-1.05,5.06C7.85,6.88,7.18,6.97,6.8,6.97z"/>
	</g>
	<g id="XMLID_317_">
		<path class="st1" d="M6.74,6.57"/>
	</g>
	<g id="XMLID_311_">
		<path id="XMLID_23_" class="st0" d="M10.24,6.11H8.56c-0.19,0-0.35-0.16-0.35-0.35s0.16-0.35,0.35-0.35h1.67
			c0.19,0,0.35,0.16,0.35,0.35S10.43,6.11,10.24,6.11z"/>
	</g>
	<g id="XMLID_223_">
		<g id="XMLID_235_">
			<path id="XMLID_19_" class="st0" d="M11.87,8.89c-1.2,0-2.18-0.98-2.18-2.18s0.98-2.18,2.18-2.18s2.18,0.98,2.18,2.18
				S13.07,8.89,11.87,8.89z M11.87,5.22c-0.82,0-1.48,0.66-1.48,1.48s0.67,1.48,1.48,1.48s1.48-0.67,1.48-1.48
				S12.69,5.22,11.87,5.22z"/>
		</g>
	</g>
	<g id="XMLID_21_">
		<path id="XMLID_16_" class="st0" d="M11.65,2.34c-0.55,0-1.08-0.24-1.44-0.66L9.97,1.4c-0.11-0.13-0.11-0.33,0-0.46l0.25-0.28
			C10.57,0.24,11.1,0,11.65,0C11.84,0,12,0.16,12,0.35v1.64C12,2.18,11.84,2.34,11.65,2.34z M10.69,1.17l0.05,0.05
			c0.15,0.17,0.35,0.3,0.56,0.36V0.75c-0.22,0.07-0.41,0.19-0.56,0.36L10.69,1.17z"/>
	</g>
</g>
</svg>
