<?xml version="1.0" encoding="utf-8"?>
<!-- Generator: Adobe Illustrator 19.0.0, SVG Export Plug-In . SVG Version: 6.00 Build 0)  -->
<svg version="1.1" id="Layer_1" xmlns="http://www.w3.org/2000/svg" xmlns:xlink="http://www.w3.org/1999/xlink" x="0px" y="0px"
	 viewBox="0 0 20 20" style="enable-background:new 0 0 20 20;" xml:space="preserve">
<style type="text/css">
	.st0{clip-path:url(#SVGID_2_);fill:none;stroke:#000000;stroke-linecap:round;stroke-linejoin:round;stroke-miterlimit:10;}
	.st1{clip-path:url(#SVGID_2_);fill:none;stroke:#000000;stroke-linejoin:round;stroke-miterlimit:10;}
</style>
<g>
	<defs>
		<rect id="SVGID_1_" y="0" width="20" height="20"/>
	</defs>
	<clipPath id="SVGID_2_">
		<use xlink:href="#SVGID_1_"  style="overflow:visible;"/>
	</clipPath>
	<path class="st0" d="M14.9,10.9L7.7,19c-0.6,0.6-1.5,0.7-2.1,0.1l-4.6-4.6c-0.6-0.6-0.6-1.6,0.1-2.1l8-7.1"/>
	<line class="st1" x1="3.1" y1="13.5" x2="9.1" y2="8.1"/>
	<path class="st0" d="M13.7,1.8c0.8-0.4,1.7-0.3,2.6,0.1l1-1c0.5-0.5,1.3-0.5,1.7,0c0.5,0.5,0.5,1.3,0,1.7l-1,1
		c0.4,0.9,0.5,1.8,0.1,2.6"/>
	<line class="st1" x1="8.5" y1="8.7" x2="9.4" y2="9.6"/>
	<line class="st1" x1="7" y1="10.2" x2="7.9" y2="11.1"/>
	<line class="st1" x1="5.5" y1="11.7" x2="6.4" y2="12.6"/>
	<line class="st1" x1="4" y1="13.2" x2="4.9" y2="14.1"/>
	<path class="st0" d="M12.1,7.9l2.9,2.9c0.5,0.5,1.4,0.5,1.9,0c0.5-0.5,0.5-1.4,0-1.9l-5.8-5.8c-0.5-0.5-1.4-0.5-1.9,0
		S8.6,4.5,9.2,5l1.1,1.1"/>
	<path class="st0" d="M14,6L16.1,8c0.5,0.5,1.4,0.5,1.9,0c0.5-0.5,0.5-1.4,0-1.9L13.9,2c-0.5-0.5-1.4-0.5-1.9,0
		c-0.5,0.5-0.5,1.4,0,1.9l0.6,0.6"/>
</g>
</svg>
