<?xml version="1.0" encoding="utf-8"?>
<!-- Generator: Adobe Illustrator 19.0.0, SVG Export Plug-In . SVG Version: 6.00 Build 0)  -->
<svg version="1.1" id="Layer_1" xmlns="http://www.w3.org/2000/svg" xmlns:xlink="http://www.w3.org/1999/xlink" x="0px" y="0px"
	 viewBox="0 0 17.5 17.5" style="enable-background:new 0 0 17.5 17.5;" xml:space="preserve">
<g>
	<defs>
		<rect id="SVGID_1_" y="0" width="17.5" height="17.5"/>
	</defs>
	<clipPath id="SVGID_2_">
		<use xlink:href="#SVGID_1_"  style="overflow:visible;"/>
	</clipPath>
	<path style="clip-path:url(#SVGID_2_);" d="M1,17.5c-0.3,0-0.5-0.1-0.7-0.3c-0.4-0.4-0.4-1,0-1.4L15.8,0.3c0.4-0.4,1-0.4,1.4,0
		c0.4,0.4,0.4,1,0,1.4L1.7,17.2C1.5,17.4,1.3,17.5,1,17.5"/>
	<path style="clip-path:url(#SVGID_2_);" d="M16.5,17.5c-0.3,0-0.5-0.1-0.7-0.3L0.3,1.7c-0.4-0.4-0.4-1,0-1.4c0.4-0.4,1-0.4,1.4,0
		l15.5,15.5c0.4,0.4,0.4,1,0,1.4C17,17.4,16.7,17.5,16.5,17.5"/>
</g>
</svg>
