<?xml version="1.0" encoding="utf-8"?>
<!-- Generator: Adobe Illustrator 19.0.0, SVG Export Plug-In . SVG Version: 6.00 Build 0)  -->
<svg version="1.1" id="Layer_1" xmlns="http://www.w3.org/2000/svg" xmlns:xlink="http://www.w3.org/1999/xlink" x="0px" y="0px"
	 viewBox="-466 160 26.6 21" style="enable-background:new -466 160 26.6 21;" xml:space="preserve">
<g>
	<g>
		<defs>
			<rect id="SVGID_1_" x="-466" y="160" width="26.6" height="21"/>
		</defs>
		<clipPath id="SVGID_2_">
			<use xlink:href="#SVGID_1_"  style="overflow:visible;"/>
		</clipPath>
		<path style="clip-path:url(#SVGID_2_);fill:#BEC6CF;" d="M-442.9,175.1h-13.5c-0.5,0-0.8-0.3-1-0.7l-2.5-9.4
			c-0.1-0.3,0-0.6,0.2-0.8c0.2-0.2,0.5-0.4,0.8-0.4h18.6c0.3,0,0.6,0.1,0.8,0.4c0.2,0.2,0.3,0.6,0.2,0.9l-2.7,9.2
			C-442.1,174.8-442.5,175.1-442.9,175.1 M-455.6,173.1h11.9l2-7.3h-15.9L-455.6,173.1z"/>
	</g>
	<g>
		<defs>
			<rect id="SVGID_3_" x="-466" y="160" width="26.6" height="21"/>
		</defs>
		<clipPath id="SVGID_4_">
			<use xlink:href="#SVGID_3_"  style="overflow:visible;"/>
		</clipPath>
		<path style="clip-path:url(#SVGID_4_);fill:#BEC6CF;" d="M-456.4,175.1c-0.4,0-0.8-0.3-1-0.7l-3.3-12.3l-3.1-0.1c-0.6,0-1-0.5-1-1
			c0-0.6,0.5-1,1-1l3.8,0.2c0.4,0,0.8,0.3,0.9,0.7l3.5,12.9c0.1,0.5-0.2,1.1-0.7,1.2C-456.2,175-456.3,175.1-456.4,175.1"/>
	</g>
	<g>
		<defs>
			<rect id="SVGID_5_" x="-466" y="160" width="26.6" height="21"/>
		</defs>
		<clipPath id="SVGID_6_">
			<use xlink:href="#SVGID_5_"  style="overflow:visible;"/>
		</clipPath>
		<path style="clip-path:url(#SVGID_6_);fill:#BEC6CF;" d="M-454,181c-1.5,0-2.8-1.2-2.8-2.8c0-1.6,1.2-2.8,2.8-2.8s2.8,1.2,2.8,2.8
			C-451.2,179.8-452.5,181-454,181 M-454,177.5c-0.4,0-0.8,0.3-0.8,0.8s0.4,0.7,0.8,0.7s0.8-0.3,0.8-0.8S-453.6,177.5-454,177.5"/>
	</g>
	<g>
		<defs>
			<rect id="SVGID_7_" x="-466" y="160" width="26.6" height="21"/>
		</defs>
		<clipPath id="SVGID_8_">
			<use xlink:href="#SVGID_7_"  style="overflow:visible;"/>
		</clipPath>
		<path style="clip-path:url(#SVGID_8_);fill:#BEC6CF;" d="M-445.6,181c-1.5,0-2.8-1.2-2.8-2.8c0-1.6,1.2-2.8,2.8-2.8
			c1.5,0,2.8,1.2,2.8,2.8C-442.8,179.8-444.1,181-445.6,181 M-445.6,177.5c-0.4,0-0.8,0.3-0.8,0.8s0.4,0.7,0.8,0.7s0.8-0.3,0.8-0.8
			S-445.2,177.5-445.6,177.5"/>
	</g>
	<g>
		<defs>
			<rect id="SVGID_9_" x="-466" y="160" width="26.6" height="21"/>
		</defs>
		<clipPath id="SVGID_10_">
			<use xlink:href="#SVGID_9_"  style="overflow:visible;"/>
		</clipPath>
		<path style="clip-path:url(#SVGID_10_);fill:#BEC6CF;" d="M-450.2,171.8h-11.6c-0.6,0-1-0.5-1-1c0-0.6,0.5-1,1-1h11.6
			c0.6,0,1,0.5,1,1C-449.2,171.4-449.7,171.8-450.2,171.8"/>
	</g>
	<g>
		<defs>
			<rect id="SVGID_11_" x="-466" y="160" width="26.6" height="21"/>
		</defs>
		<clipPath id="SVGID_12_">
			<use xlink:href="#SVGID_11_"  style="overflow:visible;"/>
		</clipPath>
		<path style="clip-path:url(#SVGID_12_);fill:#BEC6CF;" d="M-448.4,168.7H-465c-0.6,0-1-0.5-1-1c0-0.6,0.5-1,1-1h16.6
			c0.6,0,1,0.5,1,1S-447.8,168.7-448.4,168.7"/>
	</g>
</g>
</svg>
