<?xml version="1.0" encoding="utf-8"?>
<!-- Generator: Adobe Illustrator 19.0.0, SVG Export Plug-In . SVG Version: 6.00 Build 0)  -->
<svg version="1.1" id="Layer_1" xmlns="http://www.w3.org/2000/svg" xmlns:xlink="http://www.w3.org/1999/xlink" x="0px" y="0px"
	 viewBox="-465 160.5 28.2 21.5" style="enable-background:new -465 160.5 28.2 21.5;" xml:space="preserve">
<path style="fill:#BEC6CF;" d="M-451.4,162.8h12.2v9.7h-12.2V162.8z M-453.7,174.8h16.9v-14.3h-16.9V174.8z"/>
<g>
	<g>
		<defs>
			<rect id="SVGID_1_" x="-465" y="160.5" width="28.2" height="21.5"/>
		</defs>
		<clipPath id="SVGID_2_">
			<use xlink:href="#SVGID_1_"  style="overflow:visible;"/>
		</clipPath>
		<path style="clip-path:url(#SVGID_2_);fill:#BEC6CF;" d="M-446.4,178.6h-6.4c-0.6,0-1.2-0.5-1.2-1.2c0-0.6,0.5-1.2,1.2-1.2h6.4
			c0.6,0,1.2,0.5,1.2,1.2C-445.2,178-445.7,178.6-446.4,178.6"/>
	</g>
	<g>
		<defs>
			<rect id="SVGID_3_" x="-465" y="160.5" width="28.2" height="21.5"/>
		</defs>
		<clipPath id="SVGID_4_">
			<use xlink:href="#SVGID_3_"  style="overflow:visible;"/>
		</clipPath>
		<path style="clip-path:url(#SVGID_4_);fill:#BEC6CF;" d="M-441.4,178c0.5,0,1,0.4,1,1c0,0.5-0.4,1-1,1c-0.5,0-1-0.4-1-1
			C-442.3,178.4-441.9,178-441.4,178 M-441.4,176c-1.6,0-3,1.3-3,3c0,1.6,1.3,3,3,3c1.6,0,3-1.3,3-3S-439.7,176-441.4,176"/>
	</g>
	<g>
		<defs>
			<rect id="SVGID_5_" x="-465" y="160.5" width="28.2" height="21.5"/>
		</defs>
		<clipPath id="SVGID_6_">
			<use xlink:href="#SVGID_5_"  style="overflow:visible;"/>
		</clipPath>
		<path style="clip-path:url(#SVGID_6_);fill:#BEC6CF;" d="M-457.6,167.5v5c-2.1,0-3.9,1-5.1,2.5v-2.7l2.5-4.8H-457.6 M-455.2,165.1
			h-6.5l-3.3,6.6v6.9h3.3c0.2-2.1,2-3.8,4.2-3.8c0.9,0,1.6,0.3,2.3,0.7V165.1z"/>
	</g>
	<g>
		<defs>
			<rect id="SVGID_7_" x="-465" y="160.5" width="28.2" height="21.5"/>
		</defs>
		<clipPath id="SVGID_8_">
			<use xlink:href="#SVGID_7_"  style="overflow:visible;"/>
		</clipPath>
		<path style="clip-path:url(#SVGID_8_);fill:#BEC6CF;" d="M-457.5,178c0.5,0,1,0.4,1,1c0,0.5-0.4,1-1,1c-0.5,0-1-0.4-1-1
			S-458.1,178-457.5,178 M-457.5,176c-1.6,0-3,1.3-3,3c0,1.6,1.3,3,3,3c1.6,0,3-1.3,3-3C-454.6,177.3-455.9,176-457.5,176"/>
	</g>
</g>
</svg>
