<?xml version="1.0" encoding="utf-8"?>
<!-- Generator: Adobe Illustrator 19.0.0, SVG Export Plug-In . SVG Version: 6.00 Build 0)  -->
<svg version="1.1" id="Layer_1" xmlns="http://www.w3.org/2000/svg" xmlns:xlink="http://www.w3.org/1999/xlink" x="0px" y="0px"
	 viewBox="0 0 16.08 9.18" style="enable-background:new 0 0 16.08 9.18;" xml:space="preserve">
<style type="text/css">
	.st0{fill:#4C7BFC;}
	.st1{fill:#FFFFFF;stroke:#4C7BFC;stroke-width:5;stroke-linecap:round;stroke-linejoin:round;stroke-miterlimit:10;}
	.st2{fill:#FFFFFF;stroke:#4C7BFC;stroke-width:0.5;stroke-linecap:round;stroke-linejoin:round;stroke-miterlimit:10;}
</style>
<g id="XMLID_15_">
	<g id="XMLID_252_">
		<g id="XMLID_249_">
			<path id="XMLID_37_" class="st0" d="M3.4,9.16c-1.21,0-2.19-0.99-2.19-2.2c0-0.04,0-0.1,0.02-0.17c0.03-0.11,0.13-0.2,0.25-0.2
				c0.15,0,0.26,0.11,0.26,0.26v0.01c0,0.03,0,0.06-0.01,0.08c0,0.93,0.75,1.68,1.67,1.68s1.66-0.75,1.66-1.67
				C5.02,6.83,5.09,6.67,5.23,6.63c0.13-0.05,0.29,0.02,0.33,0.16c0.02,0.07,0.02,0.14,0.02,0.18C5.59,8.18,4.61,9.16,3.4,9.16z"/>
		</g>
		<g id="XMLID_255_">
			<path id="XMLID_36_" class="st0" d="M3.4,8.04c-0.59,0-1.07-0.48-1.07-1.07c0-0.04,0-0.1,0.02-0.17C2.38,6.69,2.48,6.6,2.6,6.6
				c0.15,0,0.26,0.11,0.26,0.26c0,0.03,0,0.07-0.01,0.09c0,0.31,0.25,0.56,0.55,0.56c0.3,0,0.54-0.24,0.54-0.55
				C3.93,6.94,3.93,6.9,3.93,6.87c0-0.15,0.12-0.27,0.26-0.27c0.14,0,0.25,0.1,0.26,0.23c0.01,0.05,0.01,0.1,0.01,0.14
				C4.46,7.56,3.99,8.04,3.4,8.04z"/>
		</g>
	</g>
	<g id="XMLID_258_">
		<path id="XMLID_35_" class="st0" d="M8.17,7.13c0,0-7.5-0.12-7.5-0.26c0-0.16,0.16-0.3,0.32-0.26h6.16C6.8,6.28,6.6,5.82,6.6,5.31
			s0.2-0.96,0.54-1.29H4.05c-0.76,0-1.48,0.29-2.02,0.83c-0.12,0.12-0.22,0.24-0.3,0.36C1.6,5.41,1.24,5.31,1.24,5.07
			c0-0.08,0.03-0.14,0.08-0.19c0.09-0.14,0.21-0.27,0.34-0.41c0.65-0.63,1.5-0.98,2.39-0.98h4.11c0.15,0,0.26,0.12,0.26,0.26
			c0,0.13-0.09,0.26-0.22,0.28C7.58,4.15,7.12,4.68,7.12,5.31c0,0.62,0.47,1.17,1.09,1.28c0.13,0.02,0.22,0.13,0.22,0.26
			C8.43,7,8.31,7.13,8.17,7.13z"/>
	</g>
	<g id="XMLID_250_">
		<path id="XMLID_32_" class="st0" d="M5.01,7.12H0.26C0.12,7.12,0,7,0,6.86V6.59c0-1,0.81-1.81,1.81-1.81h2.32
			c0.62,0,1.13,0.51,1.13,1.13v0.95C5.27,7,5.15,7.12,5.01,7.12z M0.53,6.59h4.22V5.91c0-0.33-0.27-0.61-0.61-0.61H1.81
			C1.1,5.3,0.53,5.88,0.53,6.59L0.53,6.59z"/>
	</g>
	<g id="XMLID_248_">
		<path id="XMLID_29_" class="st0" d="M7.4,4.02H4.58C4.2,4.02,3.9,3.72,3.9,3.34V3.22c0-0.38,0.31-0.68,0.68-0.68H7.4
			c0.38,0,0.68,0.31,0.68,0.68v0.12C8.08,3.72,7.77,4.02,7.4,4.02z M4.58,3.06c-0.09,0-0.16,0.07-0.16,0.16v0.12
			c0,0.09,0.07,0.16,0.16,0.16H7.4c0.09,0,0.16-0.07,0.16-0.16V3.22c0-0.09-0.07-0.16-0.16-0.16H4.58z"/>
	</g>
	<g id="XMLID_247_">
		<path id="XMLID_28_" class="st0" d="M11.88,1.48H9.7c-0.15,0-0.26-0.12-0.26-0.26S9.55,0.95,9.7,0.95h2.18
			c0.15,0,0.26,0.12,0.26,0.26S12.03,1.48,11.88,1.48z"/>
	</g>
	<g id="XMLID_253_">
		<path id="XMLID_27_" class="st0" d="M12.84,4.99c-0.11,0-0.22-0.07-0.25-0.19l-0.98-3.32c-0.04-0.14,0.04-0.29,0.18-0.33
			c0.14-0.04,0.29,0.04,0.33,0.18l0.98,3.32c0.04,0.14-0.04,0.29-0.18,0.33C12.89,4.98,12.86,4.99,12.84,4.99z"/>
	</g>
	<g id="XMLID_245_">
		<path id="XMLID_61_" class="st1" d="M5.91,4.51"/>
	</g>
	<g id="XMLID_244_">
		<circle id="XMLID_59_" class="st0" cx="5.99" cy="4.75" r="0.29"/>
	</g>
	<g id="XMLID_243_">
		<path id="XMLID_26_" class="st0" d="M8.4,7.14c-0.17,0-0.28-0.02-0.29-0.02C7.96,7.09,7.87,6.96,7.89,6.81
			C7.92,6.67,8.06,6.57,8.2,6.6l0,0c0.03,0.01,0.84,0.13,1.52-0.51c0.85-0.8,1.16-2.48,0.9-4.85c-0.02-0.14,0.1-0.18,0.24-0.19
			c0.14-0.02,0.27-0.01,0.28,0.13c0.29,2.58-0.07,4.36-1.07,5.3C9.47,7.05,8.78,7.14,8.4,7.14z"/>
	</g>
	<g id="XMLID_242_">
		<path id="XMLID_55_" class="st2" d="M8.34,6.82"/>
	</g>
	<g id="XMLID_251_">
		<path id="XMLID_25_" class="st0" d="M11.72,6.24h-1.46C10.11,6.24,10,6.12,10,5.98s0.12-0.26,0.26-0.26h1.46
			c0.15,0,0.07,0.13,0.07,0.27C11.8,6.13,11.87,6.24,11.72,6.24z"/>
	</g>
	<g id="XMLID_238_">
		<g id="XMLID_257_">
			<path id="XMLID_24_" class="st0" d="M13.74,9.16c-1.21,0-2.2-0.99-2.2-2.2c0-0.04,0-0.1,0.02-0.18c0.04-0.14,0.19-0.21,0.33-0.17
				c0.14,0.04,0.21,0.19,0.17,0.33c0,0.94,0.75,1.69,1.67,1.69c0.92,0,1.66-0.75,1.66-1.67c0-0.39-0.14-0.76-0.39-1.06
				c-0.09-0.11-0.08-0.28,0.03-0.37c0.11-0.09,0.28-0.08,0.37,0.03c0.33,0.39,0.51,0.89,0.51,1.4C15.93,8.18,14.95,9.16,13.74,9.16z
				"/>
		</g>
		<g id="XMLID_256_">
			<path id="XMLID_23_" class="st0" d="M13.74,8.04c-0.6,0-1.07-0.47-1.07-1.07c0-0.04,0-0.1,0.02-0.18
				c0.04-0.14,0.19-0.21,0.33-0.17c0.14,0.04,0.21,0.19,0.17,0.33c0,0.32,0.24,0.56,0.55,0.56c0.3,0,0.54-0.24,0.54-0.55
				c0-0.19-0.1-0.36-0.26-0.46c-0.12-0.07-0.17-0.24-0.09-0.36c0.07-0.13,0.24-0.16,0.36-0.09c0.32,0.19,0.52,0.53,0.52,0.91
				C14.8,7.56,14.33,8.04,13.74,8.04z"/>
		</g>
	</g>
	<g id="XMLID_237_">
		<path id="XMLID_20_" class="st0" d="M13.68,7.14h-2.09c-0.12,0-0.22-0.08-0.25-0.2c-0.02-0.07-0.02-0.14-0.02-0.21
			c0-1.37,1.12-2.49,2.5-2.49c0.93,0,1.8,0.53,2.22,1.35c0.05,0.09,0.04,0.2-0.02,0.28s-0.16,0.12-0.26,0.1
			c-0.04-0.01-0.08-0.01-0.12-0.01c-0.73,0-1.39,0.4-1.72,1.04C13.87,7.08,13.78,7.14,13.68,7.14z M11.85,6.61h1.68
			c0.39-0.64,1.05-1.06,1.79-1.16c-0.37-0.43-0.92-0.69-1.5-0.69C12.77,4.76,11.91,5.58,11.85,6.61z"/>
	</g>
	<g id="XMLID_236_">
		<path id="XMLID_17_" class="st0" d="M13.5,2.27c-0.55,0-1.07-0.24-1.44-0.66l-0.26-0.3c-0.09-0.1-0.09-0.24,0-0.34l0.26-0.3
			c0.36-0.42,0.88-0.66,1.44-0.66c0.15,0,0.26,0.12,0.26,0.26v1.73C13.77,2.16,13.65,2.27,13.5,2.27z M12.36,1.15l0.11,0.13
			c0.2,0.23,0.48,0.39,0.77,0.45V0.57c-0.3,0.06-0.57,0.21-0.77,0.45L12.36,1.15z"/>
	</g>
</g>
</svg>
