<?xml version="1.0" encoding="utf-8"?>
<!-- Generator: Adobe Illustrator 19.0.0, SVG Export Plug-In . SVG Version: 6.00 Build 0)  -->
<svg version="1.1" id="Layer_1" xmlns="http://www.w3.org/2000/svg" xmlns:xlink="http://www.w3.org/1999/xlink" x="0px" y="0px"
	 viewBox="0 0 16 10.5" style="enable-background:new 0 0 16 10.5;" xml:space="preserve">
<rect y="0" style="fill:#FFFFFF;" width="16" height="10.5"/>
<rect x="9" y="0" style="fill:#F04B4C;" width="7" height="1.5"/>
<rect x="9" y="2.9" style="fill:#F04B4C;" width="7" height="1.5"/>
<rect y="6" style="fill:#F04B4C;" width="16" height="1.5"/>
<rect y="9" style="fill:#F04B4C;" width="16" height="1.5"/>
<rect y="0" style="fill:#4095D1;" width="9" height="6"/>
<polygon style="fill:#FFFFFF;" points="2.6,0.7 2.3,0.7 2.5,0.9 2.4,1.2 2.7,1 3,1.2 2.9,0.9 3.1,0.7 2.8,0.7 2.7,0.4 "/>
<polygon style="fill:#FFFFFF;" points="4.4,0.7 4.1,0.7 4.3,0.9 4.2,1.2 4.5,1 4.8,1.2 4.7,0.9 4.9,0.7 4.6,0.7 4.5,0.4 "/>
<polygon style="fill:#FFFFFF;" points="6.2,0.7 5.9,0.7 6.2,0.9 6.1,1.2 6.3,1 6.6,1.2 6.5,0.9 6.8,0.7 6.4,0.7 6.3,0.4 "/>
<polygon style="fill:#FFFFFF;" points="8,0.7 7.7,0.7 7.9,0.9 7.8,1.2 8.1,1 8.4,1.2 8.3,0.9 8.5,0.7 8.2,0.7 8.1,0.4 "/>
<polygon style="fill:#FFFFFF;" points="0.8,0.7 0.5,0.7 0.8,0.9 0.7,1.2 0.9,1 1.2,1.2 1.1,0.9 1.3,0.7 1,0.7 0.9,0.4 "/>
<polygon style="fill:#FFFFFF;" points="2.6,2.9 2.3,2.9 2.5,3.1 2.4,3.4 2.7,3.2 3,3.4 2.9,3.1 3.1,2.9 2.8,2.9 2.7,2.5 "/>
<polygon style="fill:#FFFFFF;" points="4.4,2.9 4.1,2.9 4.3,3.1 4.2,3.4 4.5,3.2 4.8,3.4 4.7,3.1 4.9,2.9 4.6,2.9 4.5,2.5 "/>
<polygon style="fill:#FFFFFF;" points="6.2,2.9 5.9,2.9 6.2,3.1 6.1,3.4 6.3,3.2 6.6,3.4 6.5,3.1 6.8,2.9 6.4,2.9 6.3,2.5 "/>
<polygon style="fill:#FFFFFF;" points="8,2.9 7.7,2.9 7.9,3.1 7.8,3.4 8.1,3.2 8.4,3.4 8.3,3.1 8.5,2.9 8.2,2.9 8.1,2.5 "/>
<polygon style="fill:#FFFFFF;" points="0.8,2.9 0.5,2.9 0.8,3.1 0.7,3.4 0.9,3.2 1.2,3.4 1.1,3.1 1.3,2.9 1,2.9 0.9,2.5 "/>
<polygon style="fill:#FFFFFF;" points="2.6,5.1 2.3,5.1 2.5,5.3 2.4,5.6 2.7,5.4 3,5.6 2.9,5.3 3.1,5.1 2.8,5.1 2.7,4.8 "/>
<polygon style="fill:#FFFFFF;" points="4.4,5.1 4.1,5.1 4.3,5.3 4.2,5.6 4.5,5.4 4.8,5.6 4.7,5.3 4.9,5.1 4.6,5.1 4.5,4.8 "/>
<polygon style="fill:#FFFFFF;" points="6.2,5.1 5.9,5.1 6.2,5.3 6.1,5.6 6.3,5.4 6.6,5.6 6.5,5.3 6.8,5.1 6.4,5.1 6.3,4.8 "/>
<polygon style="fill:#FFFFFF;" points="8,5.1 7.7,5.1 7.9,5.3 7.8,5.6 8.1,5.4 8.4,5.6 8.3,5.3 8.5,5.1 8.2,5.1 8.1,4.8 "/>
<polygon style="fill:#FFFFFF;" points="0.8,5.1 0.5,5.1 0.8,5.3 0.7,5.6 0.9,5.4 1.2,5.6 1.1,5.3 1.3,5.1 1,5.1 0.9,4.8 "/>
</svg>
