<?xml version="1.0" encoding="utf-8"?>
<!-- Generator: Adobe Illustrator 19.0.0, SVG Export Plug-In . SVG Version: 6.00 Build 0)  -->
<svg version="1.1" id="Layer_1" xmlns="http://www.w3.org/2000/svg" xmlns:xlink="http://www.w3.org/1999/xlink" x="0px" y="0px"
	 viewBox="0 0 20 20" style="enable-background:new 0 0 20 20;" xml:space="preserve">
<style type="text/css">
	.st0{clip-path:url(#SVGID_2_);fill:none;stroke:#000000;stroke-linecap:round;stroke-linejoin:round;stroke-miterlimit:10;}
	.st1{clip-path:url(#SVGID_2_);fill:none;stroke:#000000;stroke-miterlimit:10;}
	.st2{clip-path:url(#SVGID_2_);fill:#FFFFFF;}
</style>
<g>
	<defs>
		<rect id="SVGID_1_" y="0" width="20" height="20"/>
	</defs>
	<clipPath id="SVGID_2_">
		<use xlink:href="#SVGID_1_"  style="overflow:visible;"/>
	</clipPath>
	<path class="st0" d="M2.5,1.5H1.1c-0.3,0-0.6,0.3-0.6,0.6v14.8c0,0.3,0.3,0.6,0.6,0.6h17.8c0.3,0,0.6-0.3,0.6-0.6V2.1
		c0-0.3-0.3-0.6-0.6-0.6h-1.3"/>
	<path class="st1" d="M10,1.5c0-0.5,0.4-1,1-1h6.3c0.1,0,0.2,0.1,0.2,0.2v13.6c0,0.1-0.1,0.2-0.2,0.2H11c-0.6,0-1,0.4-1,1
		c0-0.5-0.4-1-1-1H2.7c-0.1,0-0.2-0.1-0.2-0.2V0.7c0-0.1,0.1-0.2,0.2-0.2H9C9.5,0.5,10,0.9,10,1.5z"/>
	<line class="st1" x1="11.8" y1="5.3" x2="15.6" y2="5.3"/>
	<line class="st1" x1="11.8" y1="8" x2="14.5" y2="8"/>
	<line class="st1" x1="11.8" y1="10.7" x2="15.6" y2="10.7"/>
	<line class="st1" x1="4.4" y1="5.3" x2="8.2" y2="5.3"/>
	<line class="st1" x1="4.4" y1="8" x2="8.2" y2="8"/>
	<line class="st1" x1="4.4" y1="10.7" x2="6.5" y2="10.7"/>
	<polygon class="st2" points="16.5,19.5 14.5,18 12.5,19.5 12.5,14.5 16.5,14.5 	"/>
	<polygon class="st0" points="16.5,19.5 14.5,18 12.5,19.5 12.5,14.5 16.5,14.5 	"/>
</g>
</svg>
