<?xml version="1.0" encoding="utf-8"?>
<!-- Generator: Adobe Illustrator 19.0.0, SVG Export Plug-In . SVG Version: 6.00 Build 0)  -->
<svg version="1.1" id="Layer_1" xmlns="http://www.w3.org/2000/svg" xmlns:xlink="http://www.w3.org/1999/xlink" x="0px" y="0px"
	 viewBox="0 0 20 20" style="enable-background:new 0 0 20 20;" xml:space="preserve">
<style type="text/css">
	.st0{clip-path:url(#SVGID_2_);fill:none;stroke:#000000;stroke-linecap:round;stroke-linejoin:round;stroke-miterlimit:10;}
	.st1{fill:none;stroke:#000000;stroke-miterlimit:10;}
	.st2{fill:none;stroke:#000000;stroke-linecap:round;stroke-linejoin:round;stroke-miterlimit:10;}
	.st3{clip-path:url(#SVGID_4_);fill:none;stroke:#000000;stroke-linecap:round;stroke-linejoin:round;stroke-miterlimit:10;}
</style>
<g>
	<defs>
		<rect id="SVGID_1_" y="0" width="20" height="20"/>
	</defs>
	<clipPath id="SVGID_2_">
		<use xlink:href="#SVGID_1_"  style="overflow:visible;"/>
	</clipPath>
	<polyline class="st0" points="11.2,7.3 13.1,0.5 19.5,2.1 	"/>
</g>
<rect x="8.5" y="10" transform="matrix(-0.7071 -0.7071 0.7071 -0.7071 8.4523 25.4533)" class="st1" width="2" height="2"/>
<rect x="9.5" y="15" transform="matrix(-0.7071 0.7071 -0.7071 -0.7071 29.1974 19.8502)" class="st1" width="2" height="2"/>
<line class="st2" x1="5.8" y1="7.5" x2="14.1" y2="7.5"/>
<g>
	<defs>
		<rect id="SVGID_3_" y="0" width="20" height="20"/>
	</defs>
	<clipPath id="SVGID_4_">
		<use xlink:href="#SVGID_3_"  style="overflow:visible;"/>
	</clipPath>
	<path class="st3" d="M0.5,4.4C0.5,2.6,2,1,3.9,1c1.9,0,3.4,1.5,3.4,3.4H0.5z"/>
	<polygon class="st3" points="13.5,19.5 6.5,19.5 5.5,4.4 14.5,4.4 	"/>
</g>
</svg>
