<?xml version="1.0" encoding="utf-8"?>
<!-- Generator: Adobe Illustrator 19.0.0, SVG Export Plug-In . SVG Version: 6.00 Build 0)  -->
<svg version="1.1" id="Layer_1" xmlns="http://www.w3.org/2000/svg" xmlns:xlink="http://www.w3.org/1999/xlink" x="0px" y="0px"
	 viewBox="-475.3 166.6 20.6 9.4" style="enable-background:new -475.3 166.6 20.6 9.4;" xml:space="preserve">
<rect x="-475.3" y="166.6" style="fill:#4C7BFC;" width="20.6" height="9.4"/>
<g id="XMLID_249_">
	<path id="XMLID_37_" style="fill:#FFFFFF;" d="M-467.5,176c-1.3,0-2.3-1-2.3-2.3c0,0,0-0.1,0-0.2l0.3,0.1l0.4,0l0,0.1
		c0,0.9,0.7,1.6,1.6,1.6s1.6-0.7,1.6-1.6l0.7-0.2c0,0.1,0,0.2,0,0.2C-465.2,175-466.2,176-467.5,176z"/>
</g>
<g id="XMLID_255_">
	<path id="XMLID_36_" style="fill:#FFFFFF;" d="M-467.5,174.9c-0.6,0-1.2-0.5-1.2-1.2c0,0,0-0.1,0-0.2l0.3,0.1l0.4,0l0,0.1
		c0,0.2,0.2,0.4,0.5,0.4c0.2,0,0.4-0.2,0.4-0.5l0-0.1l0,0l0.4,0l0.3-0.1c0,0.1,0,0.2,0,0.2C-466.3,174.3-466.9,174.9-467.5,174.9z"
		/>
</g>
<path id="XMLID_35_" style="fill:#FFFFFF;" d="M-462.7,174h-7.2c-0.2,0-0.4-0.2-0.4-0.3s0.2-0.4,0.4-0.4h6c-0.3-0.3-0.4-0.8-0.4-1.2
	c0-0.5,0.2-0.9,0.4-1.2h-2.9c-0.7,0-1.4,0.3-2,0.8c-0.1,0.1-0.2,0.2-0.2,0.3c-0.1,0.1-0.3,0.2-0.5,0.1s-0.2-0.3-0.1-0.5
	c0.1-0.1,0.2-0.2,0.3-0.3c0.7-0.6,1.5-1,2.5-1h4.1c0.2,0,0.4,0.2,0.4,0.3c0,0.2-0.1,0.3-0.3,0.4c-0.6,0.1-1,0.6-1,1.2
	c0,0.6,0.4,1.1,1,1.2c0.2,0,0.3,0.2,0.3,0.4C-462.4,173.8-462.5,174-462.7,174z"/>
<path id="XMLID_32_" style="fill:#FFFFFF;" d="M-465.9,174h-4.8c-0.1,0-0.2,0-0.2-0.1c-0.1-0.1-0.1-0.2-0.1-0.2l0-0.4
	c0-1,0.8-1.8,1.8-1.8h2.4c0.6,0,1.2,0.5,1.2,1.2l0,1C-465.5,173.8-465.7,174-465.9,174z M-470.3,173.3h4l0-0.7
	c0-0.3-0.2-0.5-0.5-0.5h-2.4C-469.8,172.1-470.3,172.6-470.3,173.3L-470.3,173.3z"/>
<path id="XMLID_29_" style="fill:#FFFFFF;" d="M-463.5,170.8h-2.9c-0.4,0-0.8-0.3-0.8-0.8v-0.2c0-0.4,0.3-0.8,0.8-0.8h2.9
	c0.4,0,0.8,0.3,0.8,0.8v0.2C-462.7,170.5-463.1,170.8-463.5,170.8z M-466.3,169.9l0,0.2l2.9,0.1c0,0,0.1,0,0.1-0.1v-0.2
	L-466.3,169.9z"/>
<path id="XMLID_28_" style="fill:#FFFFFF;" d="M-459,168.3h-2.2c-0.2,0-0.4-0.2-0.4-0.4s0.2-0.4,0.4-0.4h2.2c0.2,0,0.4,0.2,0.4,0.4
	S-458.8,168.3-459,168.3z"/>
<path id="XMLID_27_" style="fill:#FFFFFF;" d="M-458,171.8c-0.1,0-0.3-0.1-0.3-0.2l-1-3.3c0-0.2,0-0.4,0.2-0.4
	c0.2-0.1,0.4,0,0.4,0.2l1,3.3C-457.7,171.6-457.8,171.8-458,171.8C-458,171.8-458,171.8-458,171.8z"/>
<g id="XMLID_245_">
	<path style="fill:#FFFFFF;" d="M-465,171.2"/>
</g>
<circle style="fill:#FFFFFF;" cx="-464.9" cy="171.5" r="0.3"/>
<g id="XMLID_14_">
	<path style="fill:#FFFFFF;" d="M-460,168.1"/>
</g>
<path id="XMLID_26_" style="fill:#FFFFFF;" d="M-462.5,174c-0.2,0-0.3,0-0.3,0c-0.2,0-0.3-0.2-0.3-0.4c0-0.2,0.2-0.3,0.4-0.3
	c0,0,0.8,0.1,1.4-0.5c0.8-0.8,1.1-2.4,0.9-4.6c0-0.2,0.1-0.4,0.3-0.4c0.2,0,0.4,0.1,0.4,0.3c0.3,2.5-0.1,4.3-1.1,5.2
	C-461.4,173.9-462.1,174-462.5,174z"/>
<g id="XMLID_242_">
	<path style="fill:#FFFFFF;" d="M-462.5,173.6"/>
</g>
<path id="XMLID_25_" style="fill:#FFFFFF;" d="M-459.3,173.1h-1.3c-0.2,0-0.3-0.2-0.3-0.3s0.2-0.4,0.3-0.4h1.3
	c0.2,0,0.4,0.2,0.4,0.4S-459.1,173.1-459.3,173.1z"/>
<g id="XMLID_257_">
	<path id="XMLID_24_" style="fill:#FFFFFF;" d="M-457.1,176c-1.3,0-2.3-1-2.3-2.3c0,0,0-0.1,0-0.2c0.1-0.2,0.3-0.3,0.5-0.2
		c0.2,0.1,0.3,0.3,0.2,0.4c0,0.9,0.7,1.6,1.6,1.6c0.9,0,1.6-0.7,1.6-1.6c0-0.4-0.1-0.7-0.4-1c-0.1-0.1-0.1-0.4,0-0.5
		c0.1-0.1,0.4-0.1,0.5,0c0.3,0.4,0.5,0.9,0.5,1.5C-454.9,175-455.9,176-457.1,176z"/>
</g>
<g id="XMLID_256_">
	<path id="XMLID_23_" style="fill:#FFFFFF;" d="M-457.1,174.9c-0.7,0-1.2-0.5-1.2-1.2c0,0,0-0.1,0-0.2c0.1-0.2,0.3-0.3,0.4-0.2
		c0.2,0.1,0.3,0.3,0.2,0.4c0,0.2,0.2,0.4,0.5,0.4c0.2,0,0.5-0.2,0.5-0.5c0-0.2-0.1-0.3-0.2-0.4c-0.2-0.1-0.2-0.3-0.1-0.5
		c0.1-0.2,0.3-0.2,0.5-0.1c0.4,0.2,0.6,0.6,0.6,1C-456,174.3-456.5,174.9-457.1,174.9z"/>
</g>
<path id="XMLID_20_" style="fill:#FFFFFF;" d="M-457.2,174h-2.1c-0.2,0-0.3-0.1-0.3-0.3c0-0.1,0-0.2,0-0.2c0-1.4,1.2-2.6,2.6-2.6
	c1,0,1.9,0.5,2.3,1.4c0.1,0.1,0,0.3,0,0.4c-0.1,0.1-0.2,0.2-0.4,0.1c0,0-0.1,0-0.1,0c-0.7,0-1.3,0.4-1.6,1
	C-456.9,173.9-457.1,174-457.2,174z M-458.9,173.3h1.5c0.4-0.6,1-1,1.7-1.1c-0.4-0.3-0.8-0.6-1.3-0.6
	C-458,171.6-458.8,172.3-458.9,173.3z"/>
<path id="XMLID_17_" style="fill:#FFFFFF;" d="M-457.4,169.1c-0.6,0-1.1-0.2-1.5-0.7l-0.3-0.3c-0.1-0.1-0.1-0.3,0-0.5l0.3-0.3
	c0.5-0.5,1.1-0.8,1.6-0.7c0.2,0,0.3,0.2,0.3,0.3v1.7C-457,168.9-457.2,169.1-457.4,169.1z M-458.4,167.9L-458.4,167.9
	c0.2,0.3,0.4,0.4,0.7,0.5v-1C-457.9,167.5-458.1,167.6-458.4,167.9L-458.4,167.9z"/>
<path style="fill:#FFFFFF;" d="M-471.5,171.2h-2.6c-0.2,0-0.4-0.2-0.4-0.4l0,0c0-0.2,0.2-0.4,0.4-0.4h2.6c0.2,0,0.4,0.2,0.4,0.4l0,0
	C-471.1,171-471.3,171.2-471.5,171.2z"/>
<path style="fill:#FFFFFF;" d="M-472.9,173.8h-1c-0.2,0-0.4-0.2-0.4-0.4l0,0c0-0.2,0.2-0.4,0.4-0.4h1c0.2,0,0.4,0.2,0.4,0.4l0,0
	C-472.5,173.7-472.7,173.8-472.9,173.8z"/>
<path style="fill:#FFFFFF;" d="M-472.6,172.5h-2.4c-0.2,0-0.4-0.2-0.4-0.4v0c0-0.2,0.2-0.4,0.4-0.4h2.4c0.2,0,0.4,0.2,0.4,0.4v0
	C-472.2,172.3-472.4,172.5-472.6,172.5z"/>
</svg>
