<?xml version="1.0" encoding="utf-8"?>
<!-- Generator: Adobe Illustrator 19.0.0, SVG Export Plug-In . SVG Version: 6.00 Build 0)  -->
<svg version="1.1" id="Layer_1" xmlns="http://www.w3.org/2000/svg" xmlns:xlink="http://www.w3.org/1999/xlink" x="0px" y="0px"
	 viewBox="0 0 20 20" style="enable-background:new 0 0 20 20;" xml:space="preserve">
<style type="text/css">
	.st0{clip-path:url(#SVGID_2_);fill:none;stroke:#000000;stroke-linecap:round;stroke-linejoin:round;stroke-miterlimit:10;}
	.st1{clip-path:url(#SVGID_2_);fill:none;stroke:#000000;stroke-linejoin:round;stroke-miterlimit:10;}
	.st2{clip-path:url(#SVGID_2_);fill:none;stroke:#000000;stroke-miterlimit:10;}
</style>
<g>
	<defs>
		<rect id="SVGID_1_" y="0" width="20" height="20"/>
	</defs>
	<clipPath id="SVGID_2_">
		<use xlink:href="#SVGID_1_"  style="overflow:visible;"/>
	</clipPath>
	<path class="st0" d="M18.5,7.5h-17c-0.6,0-1-0.4-1-1v-2c0-0.6,0.4-1,1-1h17c0.6,0,1,0.4,1,1v2C19.5,7,19,7.5,18.5,7.5z"/>
	<path class="st0" d="M18.5,7.7v9.8c0,1.1-0.9,2-2,2h-13c-1.1,0-2-0.9-2-2V7.7"/>
	<line class="st1" x1="10" y1="11.1" x2="10" y2="16.1"/>
	<line class="st1" x1="12.5" y1="13.6" x2="7.5" y2="13.6"/>
	<polyline class="st2" points="5.5,7.5 5.5,9.4 3.5,9.4 3.5,7.5 	"/>
	<polyline class="st2" points="16.5,7.5 16.5,9.4 14.5,9.4 14.5,7.5 	"/>
	<path class="st0" d="M14.5,3.5v-2c0-0.6-0.4-1-1-1h-7c-0.6,0-1,0.4-1,1v2"/>
</g>
</svg>
