<?xml version="1.0" encoding="utf-8"?>
<!-- Generator: Adobe Illustrator 19.0.0, SVG Export Plug-In . SVG Version: 6.00 Build 0)  -->
<svg version="1.1" id="Layer_1" xmlns="http://www.w3.org/2000/svg" xmlns:xlink="http://www.w3.org/1999/xlink" x="0px" y="0px"
	 viewBox="0 0 19.9 19.6" style="enable-background:new 0 0 19.9 19.6;" xml:space="preserve">
<style type="text/css">
	.st0{clip-path:url(#SVGID_2_);fill:none;stroke:#000000;stroke-linecap:round;stroke-linejoin:round;stroke-miterlimit:10;}
	.st1{clip-path:url(#SVGID_2_);fill:none;stroke:#000000;stroke-linejoin:round;stroke-miterlimit:10;}
	.st2{clip-path:url(#SVGID_2_);fill:none;stroke:#000000;stroke-linecap:round;stroke-miterlimit:10;}
</style>
<g>
	<defs>
		<rect id="SVGID_1_" width="19.9" height="19.6"/>
	</defs>
	<clipPath id="SVGID_2_">
		<use xlink:href="#SVGID_1_"  style="overflow:visible;"/>
	</clipPath>
	<path class="st0" d="M5.4,0.8L5.4,0.8c0.4-0.4,1.1-0.4,1.4,0L12,5.9l-1.4,1.4L5.4,2.2C5,1.9,5,1.2,5.4,0.8z"/>
	<path class="st1" d="M3.3,3.8l3.8,3.8c0.6,0.6,0.7,1.3,0.5,2l7.8,7.8c0.4,0.4,0.4,1,0,1.4c-0.4,0.4-1.1,0.4-1.5,0l-7.8-7.8
		c-0.2,0.1-0.4,0.1-0.6,0.1c-0.5,0-1.1-0.2-1.5-0.6L0.4,6.7"/>
	<line class="st1" x1="5.6" y1="9.1" x2="1.8" y2="5.3"/>
	<path class="st2" d="M19.1,13.1L19.1,13.1L12,5.9l-1.9,1.9l5,5C16.2,14,17.9,14.1,19.1,13.1z"/>
</g>
</svg>
