<?xml version="1.0" encoding="utf-8"?>
<!-- Generator: Adobe Illustrator 19.0.0, SVG Export Plug-In . SVG Version: 6.00 Build 0)  -->
<svg version="1.1" id="Layer_1" xmlns="http://www.w3.org/2000/svg" xmlns:xlink="http://www.w3.org/1999/xlink" x="0px" y="0px"
	 viewBox="0 0 22.8 23.3" style="enable-background:new 0 0 22.8 23.3;" xml:space="preserve">
<g>
	<defs>
		<rect id="SVGID_1_" y="0" width="22.8" height="23.3"/>
	</defs>
	<clipPath id="SVGID_2_">
		<use xlink:href="#SVGID_1_"  style="overflow:visible;"/>
	</clipPath>
	<path style="clip-path:url(#SVGID_2_);fill:#C0C8D1;" d="M17,19.2c-0.2,0-0.4-0.1-0.6-0.2c-0.4-0.3-0.5-1-0.2-1.4l4.4-6l-4.4-6
		c-0.3-0.4-0.2-1.1,0.2-1.4c0.4-0.3,1.1-0.2,1.4,0.2l4.8,6.6c0.3,0.4,0.3,0.8,0,1.2l-4.8,6.6C17.6,19.1,17.3,19.2,17,19.2"/>
	<path style="clip-path:url(#SVGID_2_);fill:#C0C8D1;" d="M21.8,12.6H9.4c-0.6,0-1-0.4-1-1s0.4-1,1-1h12.4c0.6,0,1,0.4,1,1
		S22.3,12.6,21.8,12.6"/>
	<path style="clip-path:url(#SVGID_2_);fill:#C0C8D1;" d="M1,23.3c-0.6,0-1-0.4-1-1V1c0-0.6,0.4-1,1-1s1,0.4,1,1v21.3
		C2,22.8,1.6,23.3,1,23.3"/>
	<path style="clip-path:url(#SVGID_2_);fill:#C0C8D1;" d="M14.4,23.3H1c-0.6,0-1-0.4-1-1s0.4-1,1-1h13.4c0.6,0,1,0.4,1,1
		S14.9,23.3,14.4,23.3"/>
	<path style="clip-path:url(#SVGID_2_);fill:#C0C8D1;" d="M14.4,2H1C0.4,2,0,1.6,0,1s0.4-1,1-1h13.4c0.6,0,1,0.4,1,1S14.9,2,14.4,2"
		/>
</g>
</svg>
