<?xml version="1.0" encoding="utf-8"?>
<!-- Generator: Adobe Illustrator 19.0.0, SVG Export Plug-In . SVG Version: 6.00 Build 0)  -->
<svg version="1.1" id="Layer_1" xmlns="http://www.w3.org/2000/svg" xmlns:xlink="http://www.w3.org/1999/xlink" x="0px" y="0px"
	 viewBox="0 0 218.5 51.7" style="enable-background:new 0 0 218.5 51.7;" xml:space="preserve">
<path style="fill-rule:evenodd;clip-rule:evenodd;fill:#F07F22;" d="M12.6,7.9c0.3,1.2,0.6,2.3,1.1,3.4c0,0.1,0.1,0.2,0,0.3
	c-0.6,1.3-1.2,2.5-2.2,3.6c0,0,0,0,0,0l2.2,1.7c0.7-0.7,1.2-1.6,1.5-2.7c0.1,0.1,0.1,0.1,0.1,0.2c0.9,1.4,2,2.7,3.4,3.7
	c0.9,0.7,1.9,1.2,3.1,1.4c0.4,0.1,0.9,0.1,1.3-0.1c-0.1-0.1-0.2-0.1-0.3-0.2c-0.2-0.1-0.4-0.3-0.6-0.4c-0.7-0.6-1.3-1.3-1.9-2
	c-1.1-1.7-2.3-3.3-3.4-5c-1.2-1.8-2.4-3.7-3.8-5.4c-0.3-0.3-0.6-0.7-0.9-1l-0.1-0.1C12.2,6.1,12.4,7,12.6,7.9"/>
<path style="fill-rule:evenodd;clip-rule:evenodd;fill:#F07F22;" d="M4.9,16.9c1.3,0,2.5,0.1,3.8,0.3c0.1,0,0.2,0,0.3,0
	c1.2-0.8,2.3-1.7,3.2-2.8c0,0,0,0,0,0l2.2,1.7c-0.6,0.8-1.4,1.5-2.4,2c0.1,0,0.2,0.1,0.2,0.1c1.6,0.6,3.2,1.3,4.5,2.4
	c0.9,0.7,1.6,1.5,2.1,2.6c0.2,0.4,0.3,0.8,0.2,1.2c-0.1-0.1-0.2-0.2-0.2-0.2c-0.2-0.2-0.4-0.3-0.6-0.5c-0.8-0.6-1.6-1-2.5-1.3
	c-2-0.7-3.9-1.4-5.9-2c-2.2-0.7-4.3-1.4-6.4-2.4c-0.4-0.2-0.8-0.4-1.3-0.6l-0.1-0.1C3,17,4,16.9,4.9,16.9"/>
<path style="fill-rule:evenodd;clip-rule:evenodd;fill:#F07F22;" d="M5.7,9.7C5.8,9.6,6,9.5,6.2,9.4c1-0.6,2.4-0.4,3.2,0.5
	c0.8,0.9,0.8,2.2,0,3.1c-0.7,0.9-2.1,1.1-3.1,0.6c-1.2-0.6-1.6-2.1-1-3.2c0,0,0-0.1,0.1-0.1C5.4,10,5.5,9.8,5.7,9.7"/>
<path style="fill-rule:evenodd;clip-rule:evenodd;fill:#F4CA14;" d="M2.8,25.7c1.1,0.5,2.3,1,3.5,1.3c0.1,0,0.2,0.1,0.2,0.1
	c0.7,1.2,1.3,2.5,1.6,3.9c0,0,0,0,0,0l2.8-0.6c-0.1-1-0.5-1.9-1.3-2.8c0.1,0,0.2,0,0.2,0c1.7,0.2,3.5,0.2,5.2-0.3
	c1.1-0.3,2.2-0.7,3-1.4c0.3-0.3,0.6-0.6,0.8-1c-0.1,0-0.2,0.1-0.3,0.1c-0.3,0.1-0.5,0.1-0.8,0.2c-0.9,0.2-1.9,0.2-2.8,0.1
	c-2.1-0.2-4.2-0.4-6.2-0.6c-2.3-0.2-4.5-0.5-6.8-0.5c-0.5,0-0.9,0-1.4,0l-0.1,0C1.1,24.9,2,25.3,2.8,25.7"/>
<path style="fill-rule:evenodd;clip-rule:evenodd;fill:#F4CA14;" d="M5.5,37c0.8-0.9,1.6-1.8,2.6-2.6c0.1-0.1,0.1-0.1,0.1-0.2
	c0.1-1.4,0.1-2.8-0.3-4.1c0,0,0,0,0,0l2.8-0.6c0.3,0.9,0.4,1.9,0.1,3c0.1-0.1,0.1-0.1,0.2-0.1c1.5-0.9,3.1-1.5,4.8-1.9
	c1.1-0.2,2.3-0.3,3.4,0.1c0.4,0.1,0.8,0.3,1.2,0.6c-0.1,0-0.2,0-0.3,0c-0.3,0-0.5,0.1-0.8,0.1c-0.9,0.2-1.8,0.6-2.6,1
	c-1.8,1-3.6,2.1-5.3,3.1c-1.9,1.1-3.9,2.3-5.9,3.2c-0.4,0.2-0.8,0.4-1.3,0.6l-0.1,0C4.4,38.4,4.9,37.7,5.5,37"/>
<path style="fill-rule:evenodd;clip-rule:evenodd;fill:#F4CA14;" d="M0,32c0-0.2,0-0.4,0-0.6c0.2-1.1,1.2-2,2.4-2
	c1.2,0,2.3,0.7,2.6,1.9c0.3,1.1-0.4,2.2-1.5,2.7c-1.3,0.5-2.7-0.1-3.3-1.3c0,0,0-0.1-0.1-0.1C0.1,32.3,0,32.2,0,32"/>
<path style="fill-rule:evenodd;clip-rule:evenodd;fill:#AEC937;" d="M11.4,44.1c1.1-0.5,2.2-1.1,3.3-1.8c0.1-0.1,0.2-0.1,0.3-0.1
	c1.4,0.2,2.9,0.6,4.2,1.2c0,0,0,0,0,0l1.3-2.5c-0.9-0.5-1.9-0.8-3.1-0.8c0.1-0.1,0.1-0.1,0.2-0.2c1.2-1.2,2.3-2.5,3-4
	c0.5-1,0.8-2,0.7-3.1c0-0.4-0.1-0.8-0.4-1.2c0,0.1-0.1,0.2-0.1,0.3c-0.1,0.2-0.2,0.5-0.3,0.7c-0.4,0.8-1,1.5-1.7,2.2
	c-1.5,1.4-2.9,2.8-4.4,4.2c-1.6,1.5-3.2,3-4.7,4.7c-0.3,0.3-0.6,0.7-0.9,1l-0.1,0.1C9.7,44.8,10.6,44.4,11.4,44.1"/>
<path style="fill-rule:evenodd;clip-rule:evenodd;fill:#AEC937;" d="M22.4,49.1c-0.3-1.2-0.5-2.3-0.5-3.5c0-0.1,0-0.2-0.1-0.2
	c-1.1-0.9-2.2-1.8-3.6-2.3c0,0,0,0,0,0l1.3-2.5c1,0.3,1.8,0.9,2.6,1.8c0-0.1,0-0.2,0-0.2c0.2-1.6,0.6-3.2,1.4-4.7
	c0.5-1,1.2-1.9,2.2-2.5c0.4-0.2,0.7-0.4,1.2-0.5c-0.1,0.1-0.1,0.2-0.2,0.3c-0.1,0.2-0.3,0.4-0.4,0.7c-0.4,0.8-0.6,1.7-0.8,2.6
	c-0.3,2-0.5,3.9-0.8,5.9c-0.3,2.1-0.5,4.3-1,6.4c-0.1,0.4-0.2,0.9-0.3,1.3l-0.1,0.1C22.9,50.9,22.6,50,22.4,49.1"/>
<path style="fill-rule:evenodd;clip-rule:evenodd;fill:#AEC937;" d="M14.8,50c-0.2-0.1-0.3-0.2-0.4-0.4c-0.8-0.8-0.9-2.1-0.2-3
	c0.7-1,2-1.2,3.2-0.7c1.1,0.5,1.6,1.7,1.3,2.8c-0.4,1.2-1.8,2-3.1,1.6c0,0-0.1,0-0.2,0C15.2,50.2,15,50.1,14.8,50"/>
<path style="fill-rule:evenodd;clip-rule:evenodd;fill:#188BCB;" d="M31.9,49.1c0.3-1.2,0.5-2.3,0.6-3.5c0-0.1,0-0.2,0.1-0.2
	c1.1-0.9,2.3-1.8,3.6-2.3c0,0,0,0,0,0L35,40.6c-1,0.3-1.8,0.9-2.6,1.8c0-0.1,0-0.2,0-0.2c-0.2-1.6-0.6-3.2-1.4-4.7
	c-0.5-1-1.2-1.9-2.2-2.5c-0.4-0.2-0.7-0.4-1.2-0.5c0.1,0.1,0.1,0.2,0.2,0.3c0.1,0.2,0.3,0.4,0.4,0.7c0.4,0.8,0.6,1.7,0.7,2.6
	c0.3,2,0.5,3.9,0.7,5.9c0.2,2.1,0.5,4.3,1,6.4c0.1,0.4,0.2,0.9,0.3,1.3l0.1,0.1C31.4,50.9,31.7,50,31.9,49.1"/>
<path style="fill-rule:evenodd;clip-rule:evenodd;fill:#188BCB;" d="M43,44.2c-1.1-0.5-2.2-1.1-3.3-1.8c-0.1-0.1-0.2-0.1-0.3-0.1
	c-1.4,0.2-2.9,0.6-4.2,1.2c0,0,0,0,0,0L34,41c0.9-0.5,1.9-0.8,3.1-0.8c-0.1-0.1-0.1-0.1-0.2-0.2c-1.2-1.2-2.3-2.5-3-4
	c-0.5-1-0.8-2-0.7-3.2c0-0.4,0.1-0.8,0.4-1.2c0,0.1,0.1,0.2,0.1,0.3c0.1,0.2,0.2,0.5,0.3,0.7c0.4,0.8,1,1.5,1.7,2.2
	c1.4,1.4,2.9,2.8,4.4,4.2c1.6,1.5,3.2,3.1,4.6,4.8c0.3,0.3,0.6,0.7,0.9,1l0.1,0.1C44.7,44.9,43.8,44.5,43,44.2"/>
<path style="fill-rule:evenodd;clip-rule:evenodd;fill:#188BCB;" d="M39,50.3c-0.2,0-0.4,0.1-0.6,0.1c-1.2,0.1-2.3-0.6-2.6-1.7
	c-0.3-1.1,0.2-2.3,1.4-2.8c1.1-0.5,2.4-0.1,3.1,0.8c0.8,1,0.5,2.5-0.6,3.3c0,0-0.1,0.1-0.1,0.1C39.4,50.2,39.2,50.3,39,50.3"/>
<path style="fill-rule:evenodd;clip-rule:evenodd;fill:#C9187E;" d="M48.9,37.1c-0.8-0.9-1.6-1.8-2.6-2.6c-0.1-0.1-0.1-0.1-0.1-0.2
	c-0.1-1.4,0-2.8,0.4-4.1c0,0,0,0,0,0l-2.8-0.6c-0.3,0.9-0.4,1.9-0.1,3c-0.1-0.1-0.1-0.1-0.2-0.1c-1.5-0.9-3-1.6-4.8-1.9
	c-1.1-0.2-2.3-0.3-3.4,0c-0.4,0.1-0.8,0.3-1.2,0.6c0.1,0,0.2,0,0.3,0c0.3,0,0.5,0.1,0.8,0.1c0.9,0.2,1.8,0.6,2.6,1.1
	c1.8,1,3.5,2.1,5.3,3.1c1.9,1.2,3.9,2.3,5.9,3.3c0.4,0.2,0.8,0.4,1.3,0.6l0.1,0C50,38.6,49.5,37.8,48.9,37.1"/>
<path style="fill-rule:evenodd;clip-rule:evenodd;fill:#C9187E;" d="M51.7,25.8c-1.1,0.5-2.3,0.9-3.5,1.3c-0.1,0-0.2,0.1-0.2,0.1
	c-0.7,1.2-1.3,2.5-1.6,3.8c0,0,0,0,0,0l-2.8-0.6c0.1-1,0.6-1.9,1.3-2.8c-0.1,0-0.2,0-0.2,0c-1.7,0.2-3.5,0.1-5.2-0.3
	c-1.1-0.3-2.2-0.7-3-1.5c-0.3-0.3-0.6-0.6-0.8-1c0.1,0,0.2,0.1,0.3,0.1c0.3,0.1,0.5,0.2,0.8,0.2c0.9,0.2,1.9,0.2,2.8,0.1
	c2.1-0.2,4.2-0.4,6.2-0.6c2.3-0.2,4.5-0.5,6.8-0.5c0.5,0,0.9,0,1.4,0l0.1,0C53.4,25,52.5,25.4,51.7,25.8"/>
<path style="fill-rule:evenodd;clip-rule:evenodd;fill:#C9187E;" d="M54.3,32.6c-0.1,0.2-0.2,0.3-0.3,0.5c-0.7,1-2,1.3-3.1,0.9
	c-1.1-0.5-1.7-1.6-1.4-2.8c0.3-1.1,1.4-1.9,2.6-1.8c1.4,0.1,2.4,1.2,2.4,2.5c0,0,0,0.1,0,0.1C54.4,32.3,54.4,32.4,54.3,32.6"/>
<path style="fill-rule:evenodd;clip-rule:evenodd;fill:#75297F;" d="M49.6,17c-1.3,0-2.5,0.1-3.8,0.3c-0.1,0-0.2,0-0.3,0
	c-1.2-0.8-2.3-1.7-3.2-2.8c0,0,0,0,0,0l-2.3,1.7c0.6,0.8,1.4,1.5,2.4,2c-0.1,0-0.2,0.1-0.2,0.1c-1.6,0.6-3.2,1.3-4.5,2.3
	c-0.9,0.7-1.7,1.5-2.1,2.5c-0.2,0.4-0.3,0.8-0.2,1.2c0.1-0.1,0.2-0.2,0.2-0.2c0.2-0.2,0.4-0.3,0.6-0.5c0.8-0.5,1.6-1,2.5-1.3
	c2-0.7,3.9-1.3,5.9-2c2.2-0.7,4.3-1.4,6.4-2.3c0.4-0.2,0.8-0.4,1.3-0.6l0.1-0.1C51.5,17.1,50.6,17,49.6,17"/>
<path style="fill-rule:evenodd;clip-rule:evenodd;fill:#75297F;" d="M42,7.9c-0.3,1.2-0.7,2.3-1.1,3.4c0,0.1-0.1,0.2,0,0.3
	c0.6,1.3,1.2,2.5,2.2,3.6c0,0,0,0,0,0l-2.3,1.7c-0.7-0.7-1.2-1.6-1.5-2.7c-0.1,0.1-0.1,0.1-0.1,0.2c-1,1.4-2.1,2.6-3.5,3.6
	c-0.9,0.7-1.9,1.2-3.1,1.3c-0.4,0.1-0.9,0.1-1.3-0.1c0.1-0.1,0.2-0.1,0.3-0.2c0.2-0.1,0.4-0.3,0.6-0.4c0.7-0.6,1.4-1.3,1.9-2
	c1.1-1.6,2.3-3.3,3.4-5c1.2-1.8,2.4-3.6,3.9-5.3c0.3-0.3,0.6-0.7,0.9-1l0.1-0.1C42.4,6.2,42.2,7.1,42,7.9"/>
<path style="fill-rule:evenodd;clip-rule:evenodd;fill:#75297F;" d="M49.3,10.2c0.1,0.2,0.2,0.4,0.2,0.5c0.4,1.1-0.1,2.3-1.2,2.8
	c-1.1,0.6-2.4,0.3-3.2-0.7c-0.7-0.9-0.7-2.2,0.1-3c0.9-1,2.5-1.1,3.5-0.2c0,0,0.1,0.1,0.1,0.1C49,9.9,49.2,10.1,49.3,10.2"/>
<path style="fill-rule:evenodd;clip-rule:evenodd;fill:#D62027;" d="M33.4,4c-0.8,0.9-1.5,1.9-2.1,3c0,0.1-0.1,0.2-0.2,0.2
	c-1.4,0.4-2.8,0.7-4.3,0.6c0,0,0,0,0,0l0,2.7c1,0.1,2.1-0.1,3.1-0.5c0,0.1-0.1,0.2-0.1,0.2c-0.6,1.6-0.9,3.2-0.9,4.8
	c0,1.1,0.2,2.2,0.8,3.1c0.2,0.4,0.5,0.7,0.9,0.9c0-0.1,0-0.2,0-0.3c0-0.3,0-0.5,0-0.7c0-0.9,0.2-1.8,0.5-2.6c0.7-1.9,1.3-3.7,2-5.6
	c0.8-2,1.5-4.1,2-6.2c0.1-0.4,0.2-0.9,0.3-1.3l0-0.1C34.6,2.6,34,3.3,33.4,4"/>
<path style="fill-rule:evenodd;clip-rule:evenodd;fill:#D62027;" d="M21.2,4c0.8,0.9,1.5,1.9,2.1,3c0,0.1,0.1,0.2,0.2,0.2
	c1.4,0.4,2.8,0.7,4.3,0.6c0,0,0,0,0,0l0,2.7c-1,0.1-2.1-0.1-3.1-0.6c0,0.1,0.1,0.2,0.1,0.2c0.5,1.6,0.9,3.2,0.9,4.8
	c0,1.1-0.2,2.2-0.8,3.1c-0.2,0.4-0.5,0.7-0.9,0.9c0-0.1,0-0.2,0-0.3c0-0.3,0-0.5,0-0.7c0-0.9-0.2-1.8-0.5-2.6
	c-0.7-1.9-1.3-3.7-2-5.6c-0.8-2-1.5-4.1-2-6.2c-0.1-0.4-0.2-0.9-0.3-1.3l0-0.1C19.9,2.6,20.6,3.3,21.2,4"/>
<path style="fill-rule:evenodd;clip-rule:evenodd;fill:#D62027;" d="M27.6,0c0.2,0.1,0.4,0.1,0.6,0.2c1.1,0.4,1.8,1.5,1.6,2.6
	c-0.2,1.2-1.3,2-2.5,2c-1.2,0-2.2-0.8-2.4-2c-0.2-1.3,0.7-2.5,2-2.7c0,0,0.1,0,0.1,0C27.1,0,27.4,0,27.6,0"/>
<path style="fill:#595A5C;" d="M84.5,31h-3.6c-0.4,0-0.7-0.3-0.7-0.7V19.6H69.7v10.7c0,0.4-0.3,0.7-0.7,0.7h-3.7
	c-0.4,0-0.7-0.3-0.7-0.7V5.7c0-0.4,0.3-0.7,0.7-0.7h3.7c0.4,0,0.7,0.3,0.7,0.7v9.6h10.5V5.7c0-0.4,0.3-0.7,0.7-0.7h3.6
	c0.4,0,0.7,0.3,0.7,0.7v24.6C85.3,30.7,85,31,84.5,31"/>
<path style="fill:#595A5C;" d="M101.1,31.3c-6.1,0-10.5-3.2-10.5-10.9v-4.7c0-7.7,4.4-10.9,10.5-10.9c6.1,0,10.5,3.2,10.5,10.9v4.7
	C111.7,28,107.2,31.3,101.1,31.3 M106.5,15.6c0-4.6-1.7-6.7-5.3-6.7c-3.6,0-5.3,2.1-5.3,6.7v4.7c0,4.6,1.7,6.7,5.3,6.7
	c3.6,0,5.3-2.1,5.3-6.7V15.6z"/>
<path style="fill:#595A5C;" d="M132.7,9.1h-6.5v21.2c0,0.4-0.3,0.7-0.7,0.7h-3.7c-0.4,0-0.7-0.3-0.7-0.7V9.1h-6.5
	c-0.4,0-0.7-0.2-0.7-0.6V5.7c0-0.4,0.3-0.7,0.7-0.7h18c0.4,0,0.7,0.3,0.7,0.7v2.8C133.4,8.8,133.1,9.1,132.7,9.1"/>
<path style="fill:#595A5C;" d="M144.5,31.3c-2.8,0-4.8-0.2-6.5-0.6c-0.4-0.1-0.7-0.3-0.7-0.7v-2.5c0-0.4,0.3-0.7,0.7-0.7h0.1
	c1.5,0.2,5.2,0.3,6.5,0.3c3.3,0,4.3-1.1,4.3-3.1c0-1.4-0.7-2.1-3.1-3.4l-4.9-2.8c-3.4-1.9-4.4-4-4.4-6.4c0-3.8,2.4-6.6,9.2-6.6
	c2.4,0,5.8,0.3,7.1,0.6c0.4,0.1,0.7,0.3,0.7,0.7v2.6c0,0.4-0.3,0.6-0.6,0.6h-0.1c-2.4-0.2-4.9-0.3-7.3-0.3c-2.7,0-3.9,0.9-3.9,2.5
	c0,1.2,0.6,1.9,3,3.1l4.4,2.3c4.1,2.1,5.1,4.4,5.1,7.1C154.2,27.5,151.9,31.3,144.5,31.3"/>
<path style="fill:#595A5C;" d="M178.5,31h-3.9c-0.3,0-0.6-0.3-0.7-0.6l-1.7-6.6h-8.5l-1.7,6.6c-0.1,0.3-0.4,0.6-0.7,0.6h-3.9
	c-0.4,0-0.7-0.2-0.7-0.6c0,0,0-0.1,0-0.2l6.1-21.9c0.9-3.3,3.5-3.6,5.1-3.6c1.6,0,4.2,0.3,5.1,3.6l6.1,21.9c0,0.1,0,0.1,0,0.2
	C179.1,30.7,178.8,31,178.5,31 M168.5,9.4c-0.1-0.4-0.2-0.6-0.6-0.6c-0.4,0-0.5,0.1-0.6,0.6l-2.7,10.4h6.5L168.5,9.4z"/>
<path style="fill:#595A5C;" d="M197.2,30.8c-1.1,0.2-4.3,0.5-6.3,0.5c-4.8,0-8.5-1.2-8.5-7.2V5.7c0-0.4,0.3-0.7,0.7-0.7h3.7
	c0.4,0,0.7,0.3,0.7,0.7v18.4c0,2.3,0.7,3,2.9,3h6.8c0.4,0,0.7,0.3,0.7,0.7V30C198,30.5,197.8,30.7,197.2,30.8"/>
<path style="fill:#595A5C;" d="M216.8,30.8c-1.2,0.2-2.6,0.5-7,0.5c-4.8,0-8.5-1.2-8.5-7.2V11.9c0-5.9,3.7-7.2,8.5-7.2
	c4.4,0,5.8,0.3,7,0.5c0.6,0.1,0.7,0.2,0.7,0.7v2.2c0,0.4-0.3,0.7-0.7,0.7h-7.5c-2.1,0-2.9,0.7-2.9,3v3.8h10c0.4,0,0.7,0.3,0.7,0.7
	v2.5c0,0.4-0.3,0.7-0.7,0.7h-10v4.5c0,2.3,0.8,3,2.9,3h7.5c0.4,0,0.7,0.3,0.7,0.7V30C217.6,30.5,217.4,30.7,216.8,30.8"/>
<path style="fill:#595A5C;" d="M69,45.1c0,1.2-0.6,1.9-1.9,1.9c-1.4,0-2-0.6-2-1.9l0.1-0.7H66l-0.1,0.7c0,0.8,0.4,1.3,1.2,1.3
	c0.7,0,1.1-0.4,1.1-1.3v-1.7c-0.4,0.2-0.8,0.3-1.2,0.3c-1.2,0-1.8-0.6-1.8-1.9c0-0.7,0.3-1.3,0.8-1.9h1c-0.6,0.7-1,1.3-1,1.9
	c0,0.9,0.3,1.3,1,1.3c0.5,0,0.9-0.1,1.2-0.3v-2.9H69V45.1z"/>
<path style="fill:#595A5C;" d="M76.7,42.1c0,0.9-0.4,1.8-1.3,2.7h-1c1-0.8,1.4-1.7,1.4-2.7c0-1.1-0.3-1.7-1-1.7
	c-0.7,0-1.1,0.5-1.1,1.5v0.9H73v-0.9c0-1-0.4-1.5-1.1-1.5c-0.7,0-1,0.6-1,1.7c0,0.9,0.5,1.8,1.5,2.7h-1C70.5,43.9,70,43,70,42.1
	c0-1.6,0.6-2.3,1.9-2.3c0.7,0,1.2,0.3,1.5,1c0.3-0.7,0.8-1,1.5-1C76.1,39.8,76.7,40.6,76.7,42.1"/>
<path style="fill:#595A5C;" d="M81.6,45.1c0,1.3-0.6,1.9-1.9,1.9c-1.4,0-2.1-0.6-2.1-1.9l0.2-1h0.8l-0.2,1c0,0.8,0.4,1.2,1.2,1.2
	c0.7,0,1-0.4,1-1.3v-0.6c0-0.6-0.3-1-0.8-1.1h-0.8v-0.7h0.6c0.6-0.3,0.9-0.7,0.9-1.4c0-0.6-0.4-0.9-1.1-0.9c-0.6,0-0.9,0.3-0.9,0.9
	l0.1,0.7h-0.8l-0.1-0.7c0-1,0.6-1.5,1.8-1.5c1.3,0,2,0.5,2,1.6c0,0.6-0.3,1.1-1,1.5c0.7,0.3,1,0.8,1,1.6V45.1z"/>
<path style="fill:#595A5C;" d="M86.5,45.1c0,1.3-0.6,1.9-1.9,1.9c-1.3,0-2-0.6-2-1.9l0.2-1h0.8l-0.1,1c0,0.8,0.4,1.3,1.2,1.3
	c0.7,0,1.1-0.4,1.1-1.2v-3.5c0-0.8-0.4-1.2-1.1-1.2c-0.6,0-0.9,0.4-0.9,1.1l0.3,1h-0.8l-0.2-1c0-1.2,0.6-1.7,1.7-1.7
	c1.2,0,1.9,0.6,1.9,1.8V45.1z"/>
<path style="fill:#595A5C;" d="M96.9,41.7c0,0.7-0.3,1.5-0.9,2.3h-1c0.7-0.8,1.1-1.5,1.1-2.3c0-0.9-0.3-1.3-1-1.3
	c-0.7,0-1,0.4-1,1.2l-0.1,1h-0.7l-0.1-1c0-0.8-0.3-1.2-1-1.2c-0.6,0-0.9,0.4-0.9,1.2l0,1h-0.7l0-1c0-0.8-0.3-1.2-1-1.2
	c-0.7,0-1,0.5-1,1.6c0,1.3,1.2,2.3,3.7,3c1.4,0.3,2.2,0.9,2.4,1.9h-0.8c-0.2-0.7-0.9-1.2-2.3-1.4c-1.1,0.1-1.8,0.4-2.2,0.8l-0.5-0.6
	c0.4-0.3,1-0.6,1.7-0.7c-1.8-0.7-2.7-1.7-2.7-3.1c0-1.4,0.6-2.2,1.9-2.2c0.7,0,1.2,0.3,1.4,0.9c0.3-0.6,0.7-1,1.3-1
	c0.6,0,1.1,0.3,1.4,1c0.3-0.6,0.8-0.9,1.4-0.9C96.2,39.8,96.9,40.4,96.9,41.7"/>
<path style="fill:#595A5C;" d="M97.8,42.4c0-1.8,0.7-2.7,2-2.7c0.8,0,1.3,0.3,1.7,0.8c0.4-0.5,0.8-0.8,1.3-0.8
	c1.3,0,1.9,0.8,1.9,2.4c0,1-0.4,1.9-1.1,2.7h-1.1c0.9-0.8,1.3-1.7,1.3-2.7c0-1.2-0.4-1.8-1.1-1.8c-0.3,0-0.7,0.3-1,0.8
	c0.1,0.2,0.1,0.6,0.1,1.2c-0.1,1.7-0.8,2.5-2,2.5C98.5,44.9,97.8,44.1,97.8,42.4 M100.9,42.4c0-1.4-0.4-2-1.1-2
	c-0.8,0-1.1,0.7-1.1,2c0,1.2,0.4,1.8,1.1,1.8C100.5,44.3,100.9,43.7,100.9,42.4z"/>
<path style="fill:#595A5C;" d="M109.5,45.1c0,1.3-0.6,1.9-1.9,1.9c-1.4,0-2.1-0.6-2.1-1.9l0.2-1h0.8l-0.1,1c0,0.8,0.4,1.2,1.2,1.2
	c0.7,0,1-0.4,1-1.3v-0.6c0-0.6-0.3-1-0.8-1.1h-0.8v-0.7h0.6c0.6-0.3,0.9-0.7,0.9-1.4c0-0.6-0.4-0.9-1.1-0.9c-0.6,0-0.9,0.3-0.9,0.9
	l0.1,0.7h-0.8l-0.1-0.7c0-1,0.6-1.5,1.8-1.5c1.3,0,2,0.5,2,1.6c0,0.6-0.3,1.1-1,1.5c0.7,0.3,1,0.8,1,1.6V45.1z"/>
<path style="fill:#595A5C;" d="M114.6,42.2c0,0.8-0.2,1.7-0.7,2.6H113c0.5-0.9,0.7-1.7,0.7-2.6c0-1.2-0.4-1.8-1.2-1.8
	c-0.8,0-1.2,0.6-1.2,1.8c0,0.9,0.2,1.7,0.7,2.6h-0.9c-0.4-0.9-0.7-1.8-0.7-2.6c0-1.6,0.7-2.4,2-2.4
	C113.9,39.8,114.6,40.6,114.6,42.2"/>
<path style="fill:#595A5C;" d="M119.6,42.6c0,1.5-0.6,2.3-1.9,2.3c-1.4,0-2-0.8-2-2.4v-5.4h0.8v5.4c0,1.2,0.4,1.7,1.2,1.7
	c0.7,0,1.1-0.6,1.1-1.7c0-0.5-0.2-1-0.5-1.4c-0.3-0.4-0.5-0.8-0.5-1.2l0-0.8h0.9l-0.1,0.7c0,0.3,0.2,0.6,0.5,1.1
	C119.5,41.6,119.6,42.1,119.6,42.6"/>
<path style="fill:#595A5C;" d="M127.8,42.6c0,1.5-0.6,2.3-1.9,2.3c-1.4,0-2-0.8-2-2.4v-5.4h0.8v5.4c0,1.2,0.4,1.7,1.2,1.7
	c0.7,0,1.1-0.6,1.1-1.7c0-0.5-0.2-1-0.5-1.4c-0.3-0.4-0.5-0.8-0.5-1.2l0-0.8h0.9l-0.1,0.7c0,0.3,0.2,0.6,0.5,1.1
	C127.6,41.6,127.8,42.1,127.8,42.6"/>
<path style="fill:#595A5C;" d="M132.7,42.9c0,1.4-0.7,2-2,2c-1.3,0-2-0.7-2-2.1l0.2-0.9h0.8l-0.2,0.9c0,1,0.4,1.5,1.1,1.5
	c0.8,0,1.1-0.5,1.1-1.4c0-0.6-0.3-1.2-0.9-1.8c-0.6-0.5-0.9-1.1-0.9-1.8h0.9c0,0.5,0.3,1,0.9,1.5C132.4,41.4,132.7,42.1,132.7,42.9"
	/>
<path style="fill:#595A5C;" d="M137.6,45.1c0,1.3-0.6,1.9-1.9,1.9c-1.4,0-2.1-0.6-2.1-1.9l0.1-1h0.8l-0.1,1c0,0.8,0.4,1.3,1.2,1.3
	c0.7,0,1.1-0.4,1.1-1.3v-3.9c0-0.5-0.2-0.8-0.6-0.8c-0.4,0-0.6,0.2-0.6,0.6l0,1.6h-0.7l0-1.6c0-0.4-0.2-0.5-0.7-0.5h-0.4l-0.5-0.2
	l0.1-0.7l0.4,0.2h0.4c0.5,0,0.8,0.3,1,0.8c0.2-0.6,0.6-0.8,1.1-0.8c1,0,1.4,0.5,1.4,1.4V45.1z"/>
<path style="fill:#595A5C;" d="M142.6,45.1c0,1.3-0.6,1.9-1.9,1.9c-1.4,0-2.1-0.6-2.1-1.8l0.2-1.1h0.8l-0.2,1c0,0.8,0.4,1.2,1.3,1.2
	c0.7,0,1-0.4,1-1.3v-0.7c0-0.8-0.4-1.1-1.1-1.1h-0.9v-0.7h0.5c0.9-0.2,1.4-0.6,1.4-1.2c0-0.5-0.3-1.1-0.9-1.6h1.1
	c0.4,0.5,0.6,1,0.6,1.6c0,0.6-0.4,1.1-1.1,1.4c0.8,0.3,1.2,0.8,1.2,1.6V45.1z"/>
<path style="fill:#595A5C;" d="M147.5,45.1c0,1.3-0.6,1.9-1.9,1.9c-1.3,0-2-0.6-2-1.9l0.2-1h0.8l-0.1,1c0,0.8,0.4,1.3,1.2,1.3
	c0.7,0,1.1-0.4,1.1-1.2v-3.5c0-0.8-0.4-1.2-1.1-1.2c-0.6,0-0.9,0.4-0.9,1.1l0.3,1h-0.8l-0.2-1c0-1.2,0.6-1.7,1.7-1.7
	c1.2,0,1.9,0.6,1.9,1.8V45.1z"/>
<path style="fill:#595A5C;" d="M148.5,42.4c0-1.8,0.7-2.7,2-2.7c0.8,0,1.3,0.3,1.6,0.8c0.4-0.5,0.8-0.8,1.3-0.8
	c1.3,0,1.9,0.8,1.9,2.4c0,1-0.4,1.9-1.1,2.7h-1.1c0.9-0.8,1.3-1.7,1.3-2.7c0-1.2-0.4-1.8-1.1-1.8c-0.3,0-0.7,0.3-1,0.8
	c0.1,0.2,0.1,0.6,0.1,1.2c-0.1,1.7-0.8,2.5-2,2.5C149.2,44.9,148.5,44.1,148.5,42.4 M151.6,42.4c0-1.4-0.4-2-1.1-2
	c-0.8,0-1.1,0.7-1.1,2c0,1.2,0.4,1.8,1.1,1.8C151.3,44.3,151.6,43.7,151.6,42.4z"/>
<path style="fill:#595A5C;" d="M160.2,45.1c0,1.3-0.6,1.9-1.9,1.9c-1.3,0-2-0.6-2-1.9l0.2-1h0.8l-0.1,1c0,0.8,0.4,1.3,1.2,1.3
	c0.7,0,1.1-0.4,1.1-1.2v-3.5c0-0.8-0.4-1.2-1.1-1.2c-0.6,0-0.9,0.4-0.9,1.1l0.3,1h-0.8l-0.2-1c0-1.2,0.6-1.7,1.7-1.7
	c1.2,0,1.9,0.6,1.9,1.8V45.1z"/>
<path style="fill:#595A5C;" d="M165.3,42.6c0,1.5-0.6,2.3-1.9,2.3c-1.4,0-2-0.8-2-2.4v-5.4h0.8v5.4c0,1.2,0.4,1.7,1.2,1.7
	c0.7,0,1.1-0.6,1.1-1.7c0-0.5-0.2-1-0.5-1.4c-0.3-0.4-0.5-0.8-0.5-1.2l0-0.8h0.9l-0.1,0.7c0,0.3,0.2,0.6,0.5,1.1
	C165.1,41.6,165.3,42.1,165.3,42.6"/>
<path style="fill:#595A5C;" d="M172.9,42.1c0,0.9-0.4,1.8-1.3,2.7h-1c1-0.8,1.4-1.7,1.4-2.7c0-1.1-0.3-1.7-1-1.7
	c-0.7,0-1.1,0.5-1.1,1.5v0.9h-0.8v-0.9c0-1-0.4-1.5-1.1-1.5c-0.7,0-1,0.6-1,1.7c0,0.9,0.5,1.8,1.5,2.7h-1c-0.9-0.9-1.3-1.8-1.3-2.7
	c0-1.6,0.6-2.3,1.9-2.3c0.7,0,1.2,0.3,1.5,1c0.3-0.7,0.8-1,1.5-1C172.3,39.8,172.9,40.6,172.9,42.1"/>
<path style="fill:#595A5C;" d="M180.9,42.9c0,1.4-0.7,2-2,2c-1.3,0-2-0.7-2-2.1l0.2-0.9h0.8l-0.2,0.9c0,1,0.4,1.5,1.1,1.5
	c0.8,0,1.1-0.5,1.1-1.4c0-0.6-0.3-1.2-0.9-1.8c-0.6-0.5-0.9-1.1-0.9-1.8h0.9c0,0.5,0.3,1,0.9,1.5C180.6,41.4,180.9,42.1,180.9,42.9"
	/>
<path style="fill:#595A5C;" d="M188.6,42.2c0,0.9-0.5,1.7-1.4,2.6h-1.1c1.1-0.8,1.6-1.7,1.6-2.6c0-1.2-0.4-1.8-1.1-1.8
	c-0.7,0-1,0.5-1,1.6v0.9h-0.8V42c0-1.1-0.3-1.6-1-1.6c-0.7,0-1.1,0.6-1.1,1.8c0,1,0.5,1.8,1.6,2.6h-1.1c-0.9-0.9-1.3-1.8-1.3-2.6
	c0-1.2,0.4-2.3,1.2-3.2c0.8-1,1.9-1.6,3.2-1.8v0.7c-1.2,0.1-2.4,0.7-3.4,2v0.2l0.9-0.3c0.7,0,1.2,0.4,1.5,1.1
	c0.3-0.8,0.8-1.1,1.5-1.1C188,39.8,188.6,40.6,188.6,42.2"/>
<path style="fill:#595A5C;" d="M191.9,38.9l0.1-0.7c0-0.3-0.3-0.5-0.8-0.5c-0.5,0-0.8,0.3-0.8,0.9v1.6c0.5-0.2,0.9-0.3,1.2-0.3
	c1.3,0,1.9,0.7,1.9,2.1c0,0.9-0.3,1.8-0.8,2.8h-1c0.6-1,1-1.9,1-2.8c0-1-0.4-1.5-1.1-1.5c-0.4,0-0.8,0.1-1.2,0.3v4h-0.8v-6.1
	c0-1.1,0.5-1.6,1.6-1.6c1,0,1.5,0.4,1.5,1.1l-0.1,0.7H191.9z"/>
<path style="fill:#595A5C;" d="M198.5,45.1c0,1.3-0.6,1.9-1.9,1.9c-1.3,0-2-0.6-2-1.9l0.2-1h0.8l-0.1,1c0,0.8,0.4,1.3,1.2,1.3
	c0.7,0,1.1-0.4,1.1-1.2v-3.5c0-0.8-0.4-1.2-1.1-1.2c-0.6,0-0.9,0.4-0.9,1.1l0.3,1h-0.8l-0.2-1c0-1.2,0.6-1.7,1.7-1.7
	c1.2,0,1.9,0.6,1.9,1.8V45.1z"/>
<path style="fill:#595A5C;" d="M203.5,45.1c0,1.3-0.6,1.9-1.9,1.9c-1.4,0-2.1-0.6-2.1-1.9l0.2-1h0.8l-0.2,1c0,0.8,0.4,1.2,1.2,1.2
	c0.7,0,1-0.4,1-1.3v-0.6c0-0.6-0.3-1-0.8-1.1H201v-0.7h0.6c0.6-0.3,0.9-0.7,0.9-1.4c0-0.6-0.4-0.9-1.1-0.9c-0.6,0-0.9,0.3-0.9,0.9
	l0.1,0.7h-0.8l-0.1-0.7c0-1,0.6-1.5,1.8-1.5c1.3,0,2,0.5,2,1.6c0,0.6-0.3,1.1-1,1.5c0.7,0.3,1,0.8,1,1.6V45.1z"/>
<path style="fill:#595A5C;" d="M208.4,42.9c0,1.4-0.7,2-2,2c-1.3,0-2-0.7-2-2.1l0.2-0.9h0.8l-0.2,0.9c0,1,0.4,1.5,1.1,1.5
	c0.8,0,1.1-0.5,1.1-1.4c0-0.6-0.3-1.2-0.9-1.8c-0.6-0.5-0.9-1.1-0.9-1.8h0.9c0,0.5,0.3,1,0.9,1.5C208.1,41.4,208.4,42.1,208.4,42.9"
	/>
<path style="fill:#595A5C;" d="M213.5,42.4c0,1.7-0.7,2.5-2,2.5c-1.3,0-1.9-0.7-1.9-2.2v-4c0-1,0.5-1.6,1.6-1.6h2v0.7h-2.2
	c-0.4,0-0.6,0.2-0.6,0.6v1.8c0.4-0.2,0.9-0.3,1.3-0.3C212.9,39.9,213.5,40.7,213.5,42.4 M212.6,42.4c0-1.2-0.4-1.9-1.2-1.9
	c-0.4,0-0.8,0.1-1.1,0.3v1.8c0,1.1,0.4,1.6,1.1,1.6C212.2,44.3,212.6,43.7,212.6,42.4z"/>
<path style="fill:#595A5C;" d="M218.5,42.2c0,0.8-0.2,1.7-0.7,2.6H217c0.5-0.9,0.7-1.7,0.7-2.6c0-1.2-0.4-1.8-1.2-1.8
	c-0.8,0-1.2,0.6-1.2,1.8c0,0.9,0.2,1.7,0.7,2.6h-0.9c-0.4-0.9-0.7-1.8-0.7-2.6c0-1.6,0.7-2.4,2-2.4
	C217.8,39.8,218.5,40.6,218.5,42.2"/>
</svg>
