<?xml version="1.0" encoding="utf-8"?>
<!-- Generator: Adobe Illustrator 19.0.0, SVG Export Plug-In . SVG Version: 6.00 Build 0)  -->
<svg version="1.1" id="Layer_1" xmlns="http://www.w3.org/2000/svg" xmlns:xlink="http://www.w3.org/1999/xlink" x="0px" y="0px"
	 viewBox="-468 158.5 22.9 24.5" style="enable-background:new -468 158.5 22.9 24.5;" xml:space="preserve">
<g>
	<g>
		<defs>
			<rect id="SVGID_1_" x="-468" y="158.5" width="22.9" height="24.5"/>
		</defs>
		<clipPath id="SVGID_2_">
			<use xlink:href="#SVGID_1_"  style="overflow:visible;"/>
		</clipPath>
		<path style="clip-path:url(#SVGID_2_);fill:#BEC6CF;" d="M-462.7,183L-462.7,183c-3.5-0.1-5.3-4.7-5.3-7.1
			c-0.1-2.7,2.4-5.2,5.3-5.3h0.1c2.9,0.1,5.3,2.6,5.3,5.4C-457.3,178.3-459.2,182.9-462.7,183C-462.6,183-462.7,183-462.7,183
			 M-462.7,172.5c-1.8,0.1-3.3,1.7-3.3,3.3c0,1.8,1.4,5.1,3.3,5.2c2-0.1,3.3-3.4,3.3-5.2C-459.3,174.2-460.9,172.6-462.7,172.5"/>
	</g>
	<g>
		<defs>
			<rect id="SVGID_3_" x="-468" y="158.5" width="22.9" height="24.5"/>
		</defs>
		<clipPath id="SVGID_4_">
			<use xlink:href="#SVGID_3_"  style="overflow:visible;"/>
		</clipPath>
		<path style="clip-path:url(#SVGID_4_);fill:#BEC6CF;" d="M-461.2,172.4L-461.2,172.4c-0.6,0-1-0.5-1-1l0.4-10.4
			c0-0.1-0.1-0.2-0.1-0.2c-0.2-0.2-0.5-0.3-0.8-0.3l0,0c-0.3,0-0.5,0.1-0.7,0.3c0,0-0.1,0.1-0.1,0.2l0.3,10.3c0,0.6-0.4,1-1,1
			c-0.5,0.1-1-0.4-1-1l-0.3-10.2c0-0.6,0.2-1.2,0.7-1.7c0.5-0.6,1.3-0.9,2.1-0.9l0,0c0.9,0,1.7,0.3,2.2,0.9c0.5,0.5,0.7,1.1,0.7,1.7
			l-0.4,10.3C-460.2,171.9-460.6,172.4-461.2,172.4"/>
	</g>
	<g>
		<defs>
			<rect id="SVGID_5_" x="-468" y="158.5" width="22.9" height="24.5"/>
		</defs>
		<clipPath id="SVGID_6_">
			<use xlink:href="#SVGID_5_"  style="overflow:visible;"/>
		</clipPath>
		<path style="clip-path:url(#SVGID_6_);fill:#BEC6CF;" d="M-449,172.4L-449,172.4c-0.6,0-1-0.5-1-1l0.3-10.3c0-0.1-0.1-0.2-0.1-0.2
			c-0.1-0.3-0.4-0.4-0.7-0.4l0,0c-0.3,0-0.6,0.1-0.7,0.3c-0.1,0.1-0.1,0.1-0.1,0.2l0.3,10.3c0,0.6-0.4,1-1,1c-0.6,0.1-1-0.4-1-1
			l-0.3-10.2c0-0.6,0.2-1.2,0.7-1.7c0.5-0.6,1.3-0.9,2.1-0.9l0,0c0.8,0,1.6,0.3,2.2,0.9c0.5,0.5,0.7,1.1,0.7,1.7l-0.4,10.3
			C-448,171.9-448.4,172.4-449,172.4"/>
	</g>
	<g>
		<defs>
			<rect id="SVGID_7_" x="-468" y="158.5" width="22.9" height="24.5"/>
		</defs>
		<clipPath id="SVGID_8_">
			<use xlink:href="#SVGID_7_"  style="overflow:visible;"/>
		</clipPath>
		<path style="clip-path:url(#SVGID_8_);fill:#BEC6CF;" d="M-446.1,183c-0.6,0-1-0.4-1-1v-5.7c0-1.9-1.5-3.4-3.4-3.4
			s-3.4,1.5-3.4,3.4v5.7c0,0.6-0.4,1-1,1s-1-0.4-1-1v-5.7c0-3,2.4-5.4,5.4-5.4s5.4,2.4,5.4,5.4v5.7
			C-445.1,182.6-445.5,183-446.1,183"/>
	</g>
	<g>
		<defs>
			<rect id="SVGID_9_" x="-468" y="158.5" width="22.9" height="24.5"/>
		</defs>
		<clipPath id="SVGID_10_">
			<use xlink:href="#SVGID_9_"  style="overflow:visible;"/>
		</clipPath>
		<path style="clip-path:url(#SVGID_10_);fill:#BEC6CF;" d="M-452,183c-0.6,0-1-0.4-1-1v-4.2c0-0.6,0.4-1,1-1s1,0.4,1,1v4.2
			C-451,182.6-451.4,183-452,183"/>
	</g>
	<g>
		<defs>
			<rect id="SVGID_11_" x="-468" y="158.5" width="22.9" height="24.5"/>
		</defs>
		<clipPath id="SVGID_12_">
			<use xlink:href="#SVGID_11_"  style="overflow:visible;"/>
		</clipPath>
		<path style="clip-path:url(#SVGID_12_);fill:#BEC6CF;" d="M-449,183c-0.6,0-1-0.4-1-1v-4.2c0-0.6,0.4-1,1-1s1,0.4,1,1v4.2
			C-448,182.6-448.5,183-449,183"/>
	</g>
</g>
</svg>
