<?xml version="1.0" encoding="utf-8"?>
<!-- Generator: Adobe Illustrator 19.0.0, SVG Export Plug-In . SVG Version: 6.00 Build 0)  -->
<svg version="1.1" id="Layer_1" xmlns="http://www.w3.org/2000/svg" xmlns:xlink="http://www.w3.org/1999/xlink" x="0px" y="0px"
	 viewBox="0 0 50 30" style="enable-background:new 0 0 50 30;" xml:space="preserve">
<style type="text/css">
	.st0{fill:#4C7BFC;}
	.st1{fill:#FFFFFF;}
	.st2{fill:#FFFFFF;stroke:#FFFFFF;stroke-width:0.5;stroke-miterlimit:10;}
	.st3{fill:#FFFFFF;stroke:#FFFFFF;stroke-width:5;stroke-miterlimit:10;}
	.st4{fill:#FFFFFF;stroke:#FFFFFF;stroke-width:0.5;stroke-linecap:round;stroke-miterlimit:10;}
</style>
<rect id="XMLID_336_" y="0" class="st0" width="50" height="30"/>
<g id="XMLID_319_">
	<g id="XMLID_232_">
		<g id="XMLID_234_">
			<path id="XMLID_412_" class="st1" d="M17.11,22.1c-2,0-3.62-1.63-3.62-3.62c0-2,1.63-3.62,3.62-3.62c2,0,3.62,1.63,3.62,3.62
				C20.74,20.47,19.11,22.1,17.11,22.1z M17.11,15.72c-1.52,0-2.75,1.24-2.75,2.75s1.24,2.75,2.75,2.75s2.75-1.23,2.75-2.75
				S18.63,15.72,17.11,15.72z"/>
		</g>
		<g id="XMLID_233_">
			<path id="XMLID_409_" class="st1" d="M17.11,20.24c-0.97,0-1.77-0.79-1.77-1.77s0.79-1.77,1.77-1.77s1.77,0.79,1.77,1.77
				S18.09,20.24,17.11,20.24z M17.11,17.58c-0.49,0-0.9,0.4-0.9,0.9s0.4,0.9,0.9,0.9s0.9-0.4,0.9-0.9S17.61,17.58,17.11,17.58z"/>
		</g>
	</g>
	<g id="XMLID_231_">
		<path id="XMLID_404_" class="st0" d="M22.84,15.73c0,1.28,0.94,2.34,2.16,2.54v0.04H13.03c0-1.42,0.58-2.72,1.52-3.66
			c0.94-0.92,2.22-1.5,3.66-1.5H25v0.04C23.78,13.39,22.84,14.43,22.84,15.73z"/>
		<path id="XMLID_405_" class="st1" d="M25,18.74H13.03c-0.24,0-0.44-0.2-0.44-0.44c0-1.49,0.58-2.9,1.65-3.96
			c1.07-1.05,2.48-1.63,3.96-1.63H25c0.24,0,0.44,0.2,0.44,0.44c0,0.21-0.15,0.43-0.37,0.47c-1.04,0.17-1.79,1.06-1.79,2.11
			s0.75,1.94,1.79,2.11c0.21,0.04,0.37,0.22,0.37,0.43C25.43,18.51,25.24,18.74,25,18.74z M13.48,17.87h9.81
			c-0.56-0.55-0.89-1.31-0.89-2.14c0-0.83,0.34-1.59,0.89-2.14h-5.1c-1.26,0-2.45,0.49-3.35,1.37
			C14.06,15.75,13.58,16.77,13.48,17.87z"/>
	</g>
	<g id="XMLID_230_">
		<path id="XMLID_397_" class="st0" d="M19.99,18.29h-8.07v-1.53c0-0.81,0.66-1.47,1.47-1.47h5.77c0.46,0,0.83,0.37,0.83,0.83V18.29
			z"/>
		<path id="XMLID_401_" class="st1" d="M20.43,18.72h-8.94v-0.87c0-1.66,1.35-3,3-3h4.06c1.03,0,1.88,0.84,1.88,1.87V18.72z
			 M12.35,17.85h7.2v-1.13c0-0.55-0.45-1-1-1h-4.06C13.31,15.72,12.35,16.67,12.35,17.85L12.35,17.85z"/>
	</g>
	<g id="XMLID_229_">
		<path id="XMLID_416_" class="st2" d="M14.2,12.69"/>
	</g>
	<g id="XMLID_228_">
		<path id="XMLID_398_" class="st1" d="M23.73,13.44h-4.67c-0.62,0-1.13-0.5-1.13-1.13v-0.2c0-0.62,0.5-1.13,1.13-1.13h4.67
			c0.62,0,1.13,0.5,1.13,1.13v0.2C24.86,12.93,24.35,13.44,23.73,13.44z M19.06,11.85c-0.14,0-0.26,0.12-0.26,0.26v0.2
			c0,0.14,0.12,0.26,0.26,0.26h4.67c0.14,0,0.26-0.12,0.26-0.26v-0.2c0-0.14-0.12-0.26-0.26-0.26H19.06z"/>
	</g>
	<g id="XMLID_227_">
		<line id="XMLID_395_" class="st1" x1="27.54" y1="8.94" x2="31.15" y2="8.94"/>
		<path id="XMLID_396_" class="st1" d="M31.15,9.38h-3.61c-0.24,0-0.44-0.2-0.44-0.44c0-0.24,0.2-0.44,0.44-0.44h3.61
			c0.24,0,0.44,0.2,0.44,0.44C31.58,9.18,31.39,9.38,31.15,9.38z"/>
	</g>
	<g id="XMLID_226_">
		<line id="XMLID_392_" class="st1" x1="31.12" y1="9.26" x2="32.93" y2="15.43"/>
		
			<rect id="XMLID_394_" x="28.8" y="11.91" transform="matrix(0.2812 0.9597 -0.9597 0.2812 34.8649 -21.8552)" class="st1" width="6.44" height="0.87"/>
	</g>
	<g id="XMLID_225_">
		<path id="XMLID_415_" class="st3" d="M21.27,14.39"/>
	</g>
	<g id="XMLID_222_">
		<path id="XMLID_393_" class="st1" d="M25.39,18.76c-0.28,0-0.46-0.03-0.49-0.04l0.15-0.86c0.06,0.01,1.39,0.22,2.52-0.85
			c1.41-1.33,1.92-4.1,1.48-8.02l0.86-0.1c0.48,4.27-0.11,7.22-1.76,8.76C27.15,18.6,26.02,18.76,25.39,18.76z"/>
	</g>
	<g id="XMLID_221_">
		<path id="XMLID_408_" class="st4" d="M25.29,18.23"/>
	</g>
	<g id="XMLID_220_">
		<line id="XMLID_384_" class="st1" x1="28.46" y1="16.83" x2="31.62" y2="16.83"/>
		<path id="XMLID_391_" class="st1" d="M31.62,17.27h-3.16c-0.24,0-0.44-0.2-0.44-0.44c0-0.24,0.2-0.44,0.44-0.44h3.16
			c0.24,0,0.44,0.2,0.44,0.44C32.05,17.07,31.86,17.27,31.62,17.27z"/>
	</g>
	<g id="XMLID_65_">
		<g id="XMLID_219_">
			<path id="XMLID_388_" class="st1" d="M34.22,22.1c-2,0-3.62-1.63-3.62-3.62c0-2,1.63-3.62,3.62-3.62c2,0,3.62,1.63,3.62,3.62
				C37.84,20.47,36.22,22.1,34.22,22.1z M34.22,15.72c-1.52,0-2.75,1.24-2.75,2.75s1.23,2.75,2.75,2.75c1.52,0,2.75-1.23,2.75-2.75
				S35.74,15.72,34.22,15.72z"/>
		</g>
		<g id="XMLID_195_">
			<path id="XMLID_385_" class="st1" d="M34.22,20.24c-0.97,0-1.77-0.79-1.77-1.77s0.79-1.77,1.77-1.77c0.97,0,1.77,0.79,1.77,1.77
				S35.19,20.24,34.22,20.24z M34.22,17.58c-0.49,0-0.9,0.4-0.9,0.9s0.4,0.9,0.9,0.9c0.49,0,0.9-0.4,0.9-0.9
				S34.71,17.58,34.22,17.58z"/>
		</g>
	</g>
	<g id="XMLID_64_">
		<path id="XMLID_358_" class="st0" d="M37.65,16.38c-0.09-0.02-0.19-0.02-0.28-0.02c-1.41,0-2.63,0.78-3.24,1.95h-3.46
			c-0.02-0.07-0.02-0.17-0.02-0.24c0-2.04,1.67-3.69,3.71-3.69C35.79,14.38,37.04,15.2,37.65,16.38z"/>
		<path id="XMLID_381_" class="st1" d="M34.13,18.75h-3.46c-0.2,0-0.38-0.14-0.42-0.33c-0.03-0.11-0.03-0.23-0.03-0.35
			c0-2.27,1.86-4.13,4.14-4.13c1.56,0,2.97,0.86,3.68,2.24c0.08,0.15,0.06,0.33-0.04,0.46c-0.1,0.14-0.27,0.2-0.44,0.16
			c-0.04-0.01-0.13-0.01-0.19-0.01c-1.21,0-2.3,0.66-2.85,1.72C34.44,18.66,34.29,18.75,34.13,18.75z M31.09,17.88h2.79
			c0.64-1.06,1.73-1.76,2.97-1.92c-0.61-0.71-1.53-1.15-2.49-1.15C32.62,14.81,31.19,16.17,31.09,17.88z"/>
	</g>
	<g id="XMLID_40_">
		<path id="XMLID_378_" class="st1" d="M33.83,10.7c-0.91,0-1.78-0.4-2.38-1.08l-0.43-0.49c-0.14-0.16-0.14-0.41,0-0.57l0.43-0.49
			c0.6-0.69,1.47-1.09,2.38-1.09c0.24,0,0.44,0.2,0.44,0.44v2.86C34.27,10.5,34.07,10.7,33.83,10.7z M31.94,8.84l0.18,0.21
			c0.33,0.39,0.79,0.65,1.28,0.74v-1.9c-0.49,0.1-0.95,0.36-1.28,0.74L31.94,8.84z"/>
	</g>
</g>
</svg>
