<?xml version="1.0" encoding="utf-8"?>
<!-- Generator: Adobe Illustrator 19.0.0, SVG Export Plug-In . SVG Version: 6.00 Build 0)  -->
<svg version="1.1" id="Layer_1" xmlns="http://www.w3.org/2000/svg" xmlns:xlink="http://www.w3.org/1999/xlink" x="0px" y="0px"
	 viewBox="0 0 16.28 9.35" style="enable-background:new 0 0 16.28 9.35;" xml:space="preserve">
<style type="text/css">
	.st0{fill:#FC524E;}
	.st1{fill:#FC524E;stroke:#4C7BFC;stroke-width:0.7;stroke-linecap:round;stroke-linejoin:round;stroke-miterlimit:10;}
</style>
<g id="XMLID_252_">
	<g id="XMLID_249_">
		<g id="XMLID_37_">
			<path class="st0" d="M3.51,9.35c-1.26,0-2.28-1.03-2.28-2.29c0-0.05,0-0.12,0.03-0.21l0.32,0.11l0.37-0.01L1.92,7.08
				c0.01,0.86,0.72,1.57,1.59,1.57s1.58-0.71,1.58-1.59l0.67-0.21c0.03,0.09,0.03,0.16,0.03,0.21C5.78,8.32,4.76,9.35,3.51,9.35z"/>
		</g>
	</g>
	<g id="XMLID_255_">
		<g id="XMLID_36_">
			<path class="st0" d="M3.51,8.22c-0.64,0-1.16-0.52-1.16-1.16c0-0.05,0-0.12,0.03-0.21l0.32,0.11l0.37-0.01L3.04,7.08
				c0.01,0.23,0.21,0.44,0.47,0.44c0.25,0,0.45-0.2,0.45-0.46L3.94,7l0.01-0.04l0.37-0.01l0.31-0.11c0.03,0.09,0.03,0.16,0.03,0.21
				C4.66,7.7,4.14,8.22,3.51,8.22z"/>
		</g>
	</g>
</g>
<g id="XMLID_16_">
	<g id="XMLID_35_">
		<path class="st0" d="M8.28,7.31H1.03c-0.19,0-0.35-0.16-0.35-0.35s0.16-0.35,0.35-0.35h6.02C6.78,6.28,6.62,5.86,6.62,5.4
			c0-0.46,0.16-0.88,0.43-1.21H4.16C3.42,4.19,2.72,4.48,2.19,5C2.13,5.07,2.03,5.19,1.96,5.27C1.84,5.42,1.62,5.45,1.47,5.33
			C1.32,5.21,1.29,4.99,1.41,4.84C1.5,4.73,1.62,4.59,1.7,4.5c0.66-0.65,1.54-1.01,2.46-1.01h4.12c0.19,0,0.35,0.16,0.35,0.35
			c0,0.17-0.12,0.34-0.29,0.37C7.74,4.31,7.32,4.8,7.32,5.4c0,0.58,0.44,1.09,1.02,1.19C8.5,6.62,8.63,6.77,8.63,6.94
			C8.63,7.13,8.47,7.31,8.28,7.31z"/>
	</g>
</g>
<g id="XMLID_250_">
	<g id="XMLID_32_">
		<path class="st0" d="M5.1,7.31H0.35c-0.1,0-0.19-0.04-0.25-0.11S0,7.04,0,6.95l0.01-0.36c0-0.99,0.82-1.81,1.82-1.81h2.45
			c0.65,0,1.18,0.53,1.18,1.18L5.45,6.97C5.45,7.16,5.29,7.31,5.1,7.31z M0.71,6.61h4.04l0.01-0.66c0-0.26-0.21-0.47-0.48-0.47H1.84
			C1.22,5.48,0.71,5.98,0.71,6.61L0.71,6.61z"/>
	</g>
</g>
<g id="XMLID_248_">
	<g id="XMLID_29_">
		<path class="st0" d="M7.53,4.2H4.66c-0.41,0-0.75-0.34-0.75-0.75V3.28c0-0.41,0.34-0.75,0.75-0.75h2.87
			c0.41,0,0.75,0.34,0.75,0.75v0.17C8.28,3.86,7.94,4.2,7.53,4.2z M4.66,3.24L4.62,3.45L7.53,3.5c0.03,0,0.05-0.02,0.05-0.05V3.28
			L4.66,3.24z"/>
	</g>
</g>
<g id="XMLID_247_">
	<g id="XMLID_28_">
		<path class="st0" d="M12,1.65H9.81c-0.19,0-0.35-0.16-0.35-0.35s0.16-0.35,0.35-0.35H12c0.19,0,0.35,0.16,0.35,0.35
			S12.19,1.65,12,1.65z"/>
	</g>
</g>
<g id="XMLID_253_">
	<g id="XMLID_27_">
		<path class="st0" d="M12.95,5.16c-0.15,0-0.29-0.1-0.34-0.25l-0.98-3.33c-0.05-0.19,0.05-0.38,0.24-0.43
			c0.19-0.06,0.38,0.05,0.43,0.24l0.98,3.33c0.05,0.19-0.05,0.38-0.24,0.43C13.02,5.16,12.99,5.16,12.95,5.16z"/>
	</g>
</g>
<g id="XMLID_245_">
	<g>
		<path class="st1" d="M6.02,4.59"/>
	</g>
</g>
<g id="XMLID_244_">
	<g>
		<circle class="st0" cx="6.1" cy="4.88" r="0.33"/>
	</g>
</g>
<g id="XMLID_14_">
	<g>
		<path class="st1" d="M11.01,1.46"/>
	</g>
</g>
<g id="XMLID_243_">
	<g id="XMLID_26_">
		<path class="st0" d="M8.51,7.32C8.33,7.32,8.22,7.3,8.2,7.3C8.01,7.26,7.88,7.08,7.92,6.89c0.03-0.19,0.21-0.32,0.4-0.28
			c0.04,0.01,0.8,0.12,1.45-0.49c0.82-0.77,1.12-2.37,0.89-4.62c-0.02-0.19,0.12-0.36,0.31-0.38c0.21-0.03,0.37,0.12,0.38,0.31
			c0.26,2.53-0.12,4.29-1.12,5.22C9.61,7.22,8.9,7.32,8.51,7.32z"/>
	</g>
</g>
<g id="XMLID_242_">
	<g>
		<path class="st1" d="M8.45,6.91"/>
	</g>
</g>
<g id="XMLID_251_">
	<g id="XMLID_25_">
		<path class="st0" d="M11.68,6.42h-1.31c-0.19,0-0.35-0.16-0.35-0.35s0.16-0.35,0.35-0.35h1.31c0.19,0,0.35,0.16,0.35,0.35
			S11.88,6.42,11.68,6.42z"/>
	</g>
</g>
<g id="XMLID_238_">
	<g id="XMLID_257_">
		<g id="XMLID_24_">
			<path class="st0" d="M13.86,9.35c-1.26,0-2.29-1.03-2.29-2.29c0-0.05,0-0.12,0.03-0.21c0.06-0.18,0.26-0.28,0.45-0.22
				c0.18,0.06,0.28,0.26,0.22,0.45c0.01,0.86,0.72,1.57,1.6,1.57c0.87,0,1.58-0.71,1.58-1.59c0-0.37-0.13-0.72-0.37-1.01
				c-0.12-0.15-0.11-0.37,0.04-0.49c0.15-0.12,0.37-0.11,0.49,0.04c0.35,0.41,0.54,0.93,0.54,1.46C16.14,8.32,15.12,9.35,13.86,9.35
				z"/>
		</g>
	</g>
	<g id="XMLID_256_">
		<g id="XMLID_23_">
			<path class="st0" d="M13.86,8.22c-0.65,0-1.16-0.51-1.16-1.16c0-0.05,0-0.12,0.03-0.21c0.06-0.18,0.26-0.28,0.45-0.22
				c0.18,0.06,0.28,0.26,0.22,0.45c0.01,0.24,0.21,0.44,0.47,0.44c0.25,0,0.45-0.2,0.45-0.46c0-0.16-0.08-0.3-0.22-0.38
				c-0.17-0.1-0.22-0.31-0.12-0.48c0.1-0.17,0.31-0.22,0.48-0.12c0.35,0.21,0.56,0.58,0.56,0.99C15.01,7.7,14.49,8.22,13.86,8.22z"
				/>
		</g>
	</g>
</g>
<g id="XMLID_237_">
	<g id="XMLID_20_">
		<path class="st0" d="M13.8,7.31h-2.1c-0.16,0-0.3-0.11-0.34-0.27c-0.02-0.07-0.02-0.15-0.02-0.23c0-1.42,1.16-2.58,2.59-2.58
			c0.96,0,1.86,0.55,2.3,1.4c0.06,0.12,0.05,0.26-0.03,0.37c-0.08,0.11-0.22,0.16-0.35,0.13c-0.03-0.01-0.07,0-0.1,0
			c-0.7,0-1.33,0.38-1.65,0.99C14.05,7.24,13.93,7.31,13.8,7.31z M12.06,6.62h1.54c0.38-0.59,0.98-1,1.67-1.13
			c-0.35-0.34-0.83-0.55-1.33-0.55C12.96,4.94,12.16,5.67,12.06,6.62z"/>
	</g>
</g>
<g id="XMLID_236_">
	<g id="XMLID_17_">
		<path class="st0" d="M13.62,2.44c-0.58,0-1.12-0.25-1.5-0.69l-0.26-0.3c-0.11-0.13-0.11-0.33,0-0.46l0.26-0.3
			c0.51-0.53,1.12-0.79,1.59-0.68c0.16,0.04,0.27,0.18,0.27,0.34v1.73C13.97,2.29,13.81,2.44,13.62,2.44z M12.59,1.23l0.06,0.07
			c0.17,0.19,0.38,0.33,0.62,0.4V0.74c-0.19,0.07-0.42,0.21-0.64,0.44L12.59,1.23z"/>
	</g>
</g>
</svg>
