<?xml version="1.0" encoding="utf-8"?>
<!-- Generator: Adobe Illustrator 19.0.0, SVG Export Plug-In . SVG Version: 6.00 Build 0)  -->
<svg version="1.1" id="Layer_1" xmlns="http://www.w3.org/2000/svg" xmlns:xlink="http://www.w3.org/1999/xlink" x="0px" y="0px"
	 viewBox="0 0 23.9 23.9" style="enable-background:new 0 0 23.9 23.9;" xml:space="preserve">
<g>
	<defs>
		<rect id="SVGID_1_" x="0" width="23.9" height="23.9"/>
	</defs>
	<clipPath id="SVGID_2_">
		<use xlink:href="#SVGID_1_"  style="overflow:visible;"/>
	</clipPath>
	<path style="clip-path:url(#SVGID_2_);fill:#FFFFFF;" d="M20.5,19.7c-0.4,0.4-1,0.4-1.4,0L3.6,4.2c-0.4-0.4-0.4-1,0-1.4
		c0.4-0.4,1-0.4,1.4,0l15.5,15.5C20.9,18.7,20.9,19.3,20.5,19.7"/>
	<path style="clip-path:url(#SVGID_2_);fill:#FFFFFF;" d="M20.2,4.5L4.8,19.9c-0.4,0.4-1,0.4-1.4,0c-0.4-0.4-0.4-1,0-1.4L18.8,3
		c0.4-0.4,1-0.4,1.4,0S20.6,4.1,20.2,4.5"/>
</g>
</svg>
