<?xml version="1.0" encoding="utf-8"?>
<!-- Generator: Adobe Illustrator 19.0.0, SVG Export Plug-In . SVG Version: 6.00 Build 0)  -->
<svg version="1.1" id="Layer_1" xmlns="http://www.w3.org/2000/svg" xmlns:xlink="http://www.w3.org/1999/xlink" x="0px" y="0px"
	 viewBox="0 0 23.5 23.5" style="enable-background:new 0 0 23.5 23.5;" xml:space="preserve">
<g>
	<defs>
		<rect id="SVGID_1_" width="23.5" height="23.5"/>
	</defs>
	<clipPath id="SVGID_2_">
		<use xlink:href="#SVGID_1_"  style="overflow:visible;"/>
	</clipPath>
	<path style="clip-path:url(#SVGID_2_);fill:#C0C8D1;" d="M13,23.5h-2.6c-0.9,0-1.7-0.8-1.7-1.7v-1.7L8,19.8L6.8,21
		c-0.6,0.6-1.8,0.6-2.4,0l-1.8-1.8C2.2,18.8,2,18.4,2,17.9c0-0.5,0.2-0.9,0.5-1.2l1.2-1.2l-0.3-0.8l-1.7,0C0.8,14.7,0,14,0,13v-2.6
		c0-0.9,0.8-1.7,1.7-1.7h1.7L3.7,8L2.5,6.8C2.2,6.4,2,6,2,5.6c0-0.5,0.2-0.9,0.5-1.2l1.8-1.8c0.6-0.6,1.8-0.6,2.4,0l1.2,1.2l0.8-0.3
		l0-1.7C8.8,0.8,9.5,0,10.5,0H13c0.9,0,1.7,0.8,1.7,1.7v1.7l0.8,0.3l1.2-1.1C17.1,2.2,17.5,2,17.9,2c0.5,0,0.9,0.2,1.2,0.5L21,4.4
		c0.3,0.3,0.5,0.7,0.5,1.2c0,0.5-0.2,0.9-0.5,1.2l-1.2,1.2l0.3,0.8l1.7,0c0.9,0,1.7,0.8,1.7,1.7V13c0,0.9-0.8,1.7-1.7,1.7h-1.7
		l-0.3,0.8l1.1,1.2c0.3,0.3,0.5,0.7,0.5,1.2c0,0.5-0.2,0.9-0.5,1.2L19.2,21c-0.6,0.6-1.8,0.6-2.4,0l-1.2-1.2l-0.8,0.3l0,1.7
		C14.7,22.7,14,23.5,13,23.5 M10.8,21.5h2v-1.4c0-0.8,0.6-1.6,1.3-1.9l0.7-0.3c0.2-0.1,0.5-0.2,0.8-0.2c0.5,0,1.1,0.2,1.4,0.6l1,1
		l1.4-1.4l-1-1c-0.6-0.6-0.7-1.6-0.4-2.3l0.3-0.7c0.2-0.7,1-1.3,1.8-1.3h1.4v-2h-1.4c-0.8,0-1.6-0.6-1.9-1.4L18,8.7
		c-0.3-0.7-0.2-1.6,0.4-2.2l1-1l-1.4-1.4l-1,1c-0.6,0.6-1.6,0.7-2.3,0.4L14,5.2c-0.7-0.2-1.3-1-1.3-1.8V2h-2v1.4
		c0,0.8-0.6,1.6-1.4,1.9L8.7,5.5C8.5,5.6,8.2,5.7,7.9,5.7c-0.5,0-1.1-0.2-1.4-0.6l-1-1L4.2,5.6l1,1c0.6,0.6,0.7,1.6,0.4,2.3L5.2,9.5
		c-0.2,0.7-1,1.3-1.9,1.3H2v2h1.4c0.8,0,1.6,0.6,1.9,1.3l0.3,0.7c0.3,0.7,0.2,1.6-0.4,2.2l-1,1l1.4,1.4l1-1c0.6-0.6,1.6-0.7,2.3-0.4
		l0.7,0.3c0.7,0.2,1.3,1,1.3,1.8V21.5z M11.8,16.1c-2.4,0-4.4-2-4.4-4.4c0-2.4,2-4.4,4.4-4.4c2.4,0,4.4,2,4.4,4.4
		C16.1,14.2,14.2,16.1,11.8,16.1 M11.8,9.4c-1.3,0-2.4,1.1-2.4,2.4c0,1.3,1.1,2.4,2.4,2.4c1.3,0,2.4-1.1,2.4-2.4
		C14.1,10.4,13.1,9.4,11.8,9.4"/>
</g>
</svg>
