<?xml version="1.0" encoding="utf-8"?>
<!-- Generator: Adobe Illustrator 19.0.0, SVG Export Plug-In . SVG Version: 6.00 Build 0)  -->
<svg version="1.1" id="Layer_1" xmlns="http://www.w3.org/2000/svg" xmlns:xlink="http://www.w3.org/1999/xlink" x="0px" y="0px"
	 viewBox="0 0 19.4 20" style="enable-background:new 0 0 19.4 20;" xml:space="preserve">
<style type="text/css">
	.st0{clip-path:url(#SVGID_2_);}
	.st1{opacity:0.3;clip-path:url(#SVGID_4_);}
	.st2{clip-path:url(#SVGID_2_);fill:none;stroke:#000000;stroke-miterlimit:10;}
	.st3{clip-path:url(#SVGID_8_);fill:none;stroke:#000000;stroke-linecap:round;stroke-miterlimit:10;}
	.st4{clip-path:url(#SVGID_8_);fill:none;stroke:#000000;stroke-linecap:round;stroke-linejoin:round;stroke-miterlimit:10;}
	.st5{clip-path:url(#SVGID_8_);fill:none;stroke:#000000;stroke-miterlimit:10;}
</style>
<g>
	<defs>
		<rect id="SVGID_1_" width="19.4" height="20"/>
	</defs>
	<clipPath id="SVGID_2_">
		<use xlink:href="#SVGID_1_"  style="overflow:visible;"/>
	</clipPath>
	<g class="st0">
		<defs>
			<rect id="SVGID_3_" y="0" width="19.4" height="20"/>
		</defs>
		<clipPath id="SVGID_4_">
			<use xlink:href="#SVGID_3_"  style="overflow:visible;"/>
		</clipPath>
		<g class="st1">
			<g>
				<defs>
					<rect id="SVGID_5_" x="-1" y="-0.5" width="21" height="21"/>
				</defs>
				<clipPath id="SVGID_6_">
					<use xlink:href="#SVGID_5_"  style="overflow:visible;"/>
				</clipPath>
			</g>
		</g>
	</g>
	<line class="st2" x1="7.8" y1="13.5" x2="9.5" y2="13.5"/>
	<line class="st2" x1="7" y1="11.5" x2="9.8" y2="11.5"/>
	<g class="st0">
		<defs>
			<rect id="SVGID_7_" y="0" width="19.4" height="20"/>
		</defs>
		<clipPath id="SVGID_8_">
			<use xlink:href="#SVGID_7_"  style="overflow:visible;"/>
		</clipPath>
		<circle class="st3" cx="8" cy="5.1" r="1.8"/>
		<line class="st4" x1="16" y1="2.6" x2="16" y2="7.8"/>
		<path class="st4" d="M8.7,9.6l10.3-2.4V3L8.7,0.6C5.8-0.1,3,2.1,3,5.1S5.8,10.2,8.7,9.6z"/>
		<path class="st3" d="M5,9v6.5c0,0.6,0.4,1,1,1h2.1c0.5,0,0.9-0.4,1-0.9l1-6.4"/>
		<path class="st5" d="M0,19.5h5.8c0.7,0,1.2-0.5,1.2-1.2V17"/>
	</g>
</g>
</svg>
