<?xml version="1.0" encoding="utf-8"?>
<!-- Generator: Adobe Illustrator 19.0.0, SVG Export Plug-In . SVG Version: 6.00 Build 0)  -->
<svg version="1.1" id="Layer_1" xmlns="http://www.w3.org/2000/svg" xmlns:xlink="http://www.w3.org/1999/xlink" x="0px" y="0px"
	 viewBox="0 0 20 20" style="enable-background:new 0 0 20 20;" xml:space="preserve">
<style type="text/css">
	.st0{fill:none;stroke:#000000;stroke-linecap:round;stroke-linejoin:round;stroke-miterlimit:10;}
	.st1{clip-path:url(#SVGID_2_);fill:none;stroke:#000000;stroke-linecap:round;stroke-linejoin:round;stroke-miterlimit:10;}
	.st2{clip-path:url(#SVGID_2_);fill:none;stroke:#000000;stroke-linejoin:round;stroke-miterlimit:10;}
	.st3{clip-path:url(#SVGID_2_);fill:none;stroke:#000000;stroke-miterlimit:10;}
</style>
<line class="st0" x1="8.2" y1="4" x2="6.6" y2="4"/>
<g>
	<defs>
		<rect id="SVGID_1_" y="0" width="20" height="20"/>
	</defs>
	<clipPath id="SVGID_2_">
		<use xlink:href="#SVGID_1_"  style="overflow:visible;"/>
	</clipPath>
	<path class="st1" d="M2.5,6.6l0,4.3c0,0.6,0.4,1,1,1h11c0.6,0,1-0.4,1-1v-6c0-0.6-0.4-1-1-1"/>
	<circle class="st1" cx="3.5" cy="3.5" r="3"/>
	<circle class="st1" cx="11.3" cy="3.5" r="3"/>
	<polyline class="st1" points="17.3,8.9 15.5,8.9 15.5,6.9 17.3,6.9 	"/>
	<line class="st2" x1="10.6" y1="12.1" x2="13.6" y2="19.8"/>
	<line class="st2" x1="5.4" y1="19.8" x2="8.3" y2="12"/>
	<line class="st2" x1="9.5" y1="12.1" x2="9.5" y2="19.9"/>
	<line class="st2" x1="7" y1="16" x2="12.1" y2="16"/>
	<line class="st3" x1="8" y1="9.9" x2="4" y2="9.9"/>
	<path class="st1" d="M18.5,10.9L18.5,10.9c-0.5,0-1-0.4-1-1l0-4c0-0.5,0.4-1,1-1h0c0.5,0,1,0.4,1,1v4C19.5,10.5,19,10.9,18.5,10.9z
		"/>
</g>
</svg>
