<?xml version="1.0" encoding="utf-8"?>
<!-- Generator: Adobe Illustrator 19.0.0, SVG Export Plug-In . SVG Version: 6.00 Build 0)  -->
<svg version="1.1" id="Layer_1" xmlns="http://www.w3.org/2000/svg" xmlns:xlink="http://www.w3.org/1999/xlink" x="0px" y="0px"
	 viewBox="0 0 20 20" style="enable-background:new 0 0 20 20;" xml:space="preserve">
<style type="text/css">
	.st0{clip-path:url(#SVGID_2_);fill:none;stroke:#000000;stroke-linecap:round;stroke-linejoin:round;stroke-miterlimit:10;}
	.st1{clip-path:url(#SVGID_2_);fill:none;stroke:#000000;stroke-linejoin:round;stroke-miterlimit:10;}
	.st2{clip-path:url(#SVGID_2_);fill:none;stroke:#000000;stroke-linecap:round;stroke-miterlimit:10;}
</style>
<g>
	<defs>
		<rect id="SVGID_1_" y="0" width="20" height="20"/>
	</defs>
	<clipPath id="SVGID_2_">
		<use xlink:href="#SVGID_1_"  style="overflow:visible;"/>
	</clipPath>
	<path class="st0" d="M2.5,7.5V2.2c0-0.9,0.8-1.7,1.7-1.7h11.6c0.9,0,1.7,0.8,1.7,1.7v5.3"/>
	<line class="st1" x1="7.5" y1="5.5" x2="12.5" y2="5.5"/>
	<path class="st2" d="M17.5,17.5v1.7c0,0.1-0.1,0.2-0.2,0.2h-1.5c-0.1,0-0.2-0.1-0.2-0.2v-1.7"/>
	<path class="st2" d="M4.5,17.5v1.7c0,0.1-0.1,0.2-0.2,0.2H2.8c-0.1,0-0.2-0.1-0.2-0.2v-1.7"/>
	<path class="st0" d="M19.5,17.5v-3.7h0V9.5c0-1.1-0.9-2-2-2s-2,0.9-2,2v4h-11v-4c0-1.1-0.9-2-2-2s-2,0.9-2,2v4.3h0v3.7H19.5z"/>
	<path class="st0" d="M14,10.5H6c-0.9,0-1.5,0.7-1.5,1.6v1.4h11v-1.4C15.5,11.2,14.8,10.5,14,10.5z"/>
</g>
</svg>
