<?xml version="1.0" encoding="utf-8"?>
<!-- Generator: Adobe Illustrator 19.0.0, SVG Export Plug-In . SVG Version: 6.00 Build 0)  -->
<svg version="1.1" id="Layer_1" xmlns="http://www.w3.org/2000/svg" xmlns:xlink="http://www.w3.org/1999/xlink" x="0px" y="0px"
	 viewBox="0 0 20 19.8" style="enable-background:new 0 0 20 19.8;" xml:space="preserve">
<style type="text/css">
	.st0{clip-path:url(#SVGID_2_);fill:none;stroke:#000000;stroke-linecap:round;stroke-linejoin:round;stroke-miterlimit:10;}
	.st1{clip-path:url(#SVGID_2_);fill:none;stroke:#000000;stroke-miterlimit:10;}
	.st2{clip-path:url(#SVGID_2_);fill:none;stroke:#000000;stroke-linecap:round;stroke-miterlimit:10;}
</style>
<g>
	<defs>
		<rect id="SVGID_1_" y="0" width="20" height="19.8"/>
	</defs>
	<clipPath id="SVGID_2_">
		<use xlink:href="#SVGID_1_"  style="overflow:visible;"/>
	</clipPath>
	<path class="st0" d="M17.5,19.3h-15c-1.1,0-2-0.9-2-2V8.3c0-1.1,0.9-2,2-2h15c1.1,0,2,0.9,2,2v9.1C19.5,18.4,18.6,19.3,17.5,19.3z"
		/>
	<rect x="2.5" y="8.4" class="st0" width="11" height="9"/>
	<line class="st1" x1="15" y1="11.4" x2="18" y2="11.4"/>
	<line class="st1" x1="15" y1="9.3" x2="18" y2="9.3"/>
	<line class="st1" x1="15.2" y1="0.3" x2="11.6" y2="4.4"/>
	<rect x="15.5" y="14.3" class="st1" width="2" height="2"/>
	<path class="st2" d="M7.3,6.2c0.4-1.1,1.5-2,2.7-2c1.2,0,2.3,0.8,2.7,1.9"/>
	<line class="st1" x1="4.8" y1="0.3" x2="8.5" y2="4.5"/>
</g>
</svg>
