<?xml version="1.0" encoding="utf-8"?>
<!-- Generator: Adobe Illustrator 19.0.0, SVG Export Plug-In . SVG Version: 6.00 Build 0)  -->
<svg version="1.1" id="Layer_1" xmlns="http://www.w3.org/2000/svg" xmlns:xlink="http://www.w3.org/1999/xlink" x="0px" y="0px"
	 viewBox="0 0 19.9 20" style="enable-background:new 0 0 19.9 20;" xml:space="preserve">
<style type="text/css">
	.st0{clip-path:url(#SVGID_2_);fill:none;stroke:#000000;stroke-linecap:round;stroke-miterlimit:10;}
	.st1{clip-path:url(#SVGID_2_);fill:none;stroke:#000000;stroke-linecap:round;stroke-linejoin:round;stroke-miterlimit:10;}
	.st2{clip-path:url(#SVGID_2_);fill:none;stroke:#000000;stroke-miterlimit:10;}
</style>
<g>
	<defs>
		<rect id="SVGID_1_" y="0" width="19.9" height="20"/>
	</defs>
	<clipPath id="SVGID_2_">
		<use xlink:href="#SVGID_1_"  style="overflow:visible;"/>
	</clipPath>
	<polyline class="st0" points="16.4,6.6 16.4,19.5 3.4,19.5 3.4,6.6 	"/>
	<path class="st1" d="M19.4,19.5h-3v-6h1.4c0.8,0,1.5,0.7,1.5,1.5V19.5z"/>
	<path class="st1" d="M0.5,19.5h3v-6H2c-0.8,0-1.5,0.7-1.5,1.5V19.5z"/>
	<line class="st0" x1="13.5" y1="9.5" x2="13.5" y2="19.4"/>
	<line class="st0" x1="6.4" y1="9.5" x2="6.4" y2="19.3"/>
	<path class="st0" d="M12.4,2.2V1.6c0-0.6-0.5-1.1-1.1-1.1H8.6C7.9,0.5,7.4,1,7.4,1.6v0.6"/>
	<line class="st2" x1="12.4" y1="17.5" x2="14.4" y2="17.5"/>
	<line class="st2" x1="5.4" y1="17.5" x2="7.4" y2="17.5"/>
	<rect x="8.4" y="11.5" class="st2" width="3" height="3"/>
	<path class="st0" d="M6.9,2.5h6c1.9,0,3.5,1.6,3.5,3.5c0,1.9-1.6,3.5-3.5,3.5h-6C5,9.5,3.4,7.9,3.4,6C3.4,4,5,2.5,6.9,2.5z"/>
</g>
</svg>
